<svg width="300" height="301" viewBox="0 0 300 301" fill="none" xmlns="http://www.w3.org/2000/svg">
<path fill-rule="evenodd" clip-rule="evenodd" d="M30.5249 129.031C30.5249 148.409 46.2337 164.118 65.6114 164.118H190.438C209.816 164.118 225.525 148.409 225.525 129.031C225.525 109.653 209.816 93.9446 190.438 93.9446C190.438 74.5669 174.73 58.8581 155.352 58.8581C143.038 58.8581 132.206 65.2014 125.945 74.7985C120.874 71.9519 115.024 70.3287 108.795 70.3287C92.9445 70.3287 79.5491 80.8388 75.1973 95.2701C72.1504 94.4067 68.9349 93.9446 65.6114 93.9446C46.2337 93.9446 30.5249 109.653 30.5249 129.031Z" fill="#1E73FF"/>
<g filter="url(#filter0_b_9_1202)">
<mask id="path-2-inside-1_9_1202" fill="white">
<path fill-rule="evenodd" clip-rule="evenodd" d="M264.274 111.488H176.29C173.417 111.488 171.089 113.816 171.089 116.689V236.941C171.089 239.813 173.417 242.142 176.29 242.142H264.274C267.147 242.142 269.475 239.813 269.475 236.941V116.689C269.475 113.816 267.147 111.488 264.274 111.488ZM256.555 132.76H184.002V136.437H256.555V132.76ZM184.002 148.206H256.555V151.891H184.002V148.206ZM256.555 163.645H184.002V167.323H256.555V163.645ZM184.002 179.092H256.555V182.77H184.002V179.092ZM256.555 194.539H184.002V198.217H256.555V194.539ZM184.002 209.978H256.555V213.656H184.002V209.978Z"/>
</mask>
<path fill-rule="evenodd" clip-rule="evenodd" d="M264.274 111.488H176.29C173.417 111.488 171.089 113.816 171.089 116.689V236.941C171.089 239.813 173.417 242.142 176.29 242.142H264.274C267.147 242.142 269.475 239.813 269.475 236.941V116.689C269.475 113.816 267.147 111.488 264.274 111.488ZM256.555 132.76H184.002V136.437H256.555V132.76ZM184.002 148.206H256.555V151.891H184.002V148.206ZM256.555 163.645H184.002V167.323H256.555V163.645ZM184.002 179.092H256.555V182.77H184.002V179.092ZM256.555 194.539H184.002V198.217H256.555V194.539ZM184.002 209.978H256.555V213.656H184.002V209.978Z" fill="url(#paint0_linear_9_1202)"/>
<path d="M184.002 132.76V132.26H183.502V132.76H184.002ZM256.555 132.76H257.055V132.26H256.555V132.76ZM184.002 136.437H183.502V136.937H184.002V136.437ZM256.555 136.437V136.937H257.055V136.437H256.555ZM256.555 148.206H257.055V147.706H256.555V148.206ZM184.002 148.206V147.706H183.502V148.206H184.002ZM256.555 151.891V152.391H257.055V151.891H256.555ZM184.002 151.891H183.502V152.391H184.002V151.891ZM184.002 163.645V163.145H183.502V163.645H184.002ZM256.555 163.645H257.055V163.145H256.555V163.645ZM184.002 167.323H183.502V167.823H184.002V167.323ZM256.555 167.323V167.823H257.055V167.323H256.555ZM256.555 179.092H257.055V178.592H256.555V179.092ZM184.002 179.092V178.592H183.502V179.092H184.002ZM256.555 182.77V183.27H257.055V182.77H256.555ZM184.002 182.77H183.502V183.27H184.002V182.77ZM184.002 194.539V194.039H183.502V194.539H184.002ZM256.555 194.539H257.055V194.039H256.555V194.539ZM184.002 198.217H183.502V198.717H184.002V198.217ZM256.555 198.217V198.717H257.055V198.217H256.555ZM256.555 209.978H257.055V209.478H256.555V209.978ZM184.002 209.978V209.478H183.502V209.978H184.002ZM256.555 213.656V214.156H257.055V213.656H256.555ZM184.002 213.656H183.502V214.156H184.002V213.656ZM176.29 111.988H264.274V110.988H176.29V111.988ZM171.589 116.689C171.589 114.093 173.694 111.988 176.29 111.988V110.988C173.141 110.988 170.589 113.54 170.589 116.689H171.589ZM171.589 236.941V116.689H170.589V236.941H171.589ZM176.29 241.642C173.694 241.642 171.589 239.537 171.589 236.941H170.589C170.589 240.09 173.141 242.642 176.29 242.642V241.642ZM264.274 241.642H176.29V242.642H264.274V241.642ZM268.975 236.941C268.975 239.537 266.87 241.642 264.274 241.642V242.642C267.423 242.642 269.975 240.09 269.975 236.941H268.975ZM268.975 116.689V236.941H269.975V116.689H268.975ZM264.274 111.988C266.87 111.988 268.975 114.093 268.975 116.689H269.975C269.975 113.54 267.423 110.988 264.274 110.988V111.988ZM184.002 133.26H256.555V132.26H184.002V133.26ZM184.502 136.437V132.76H183.502V136.437H184.502ZM256.555 135.937H184.002V136.937H256.555V135.937ZM256.055 132.76V136.437H257.055V132.76H256.055ZM256.555 147.706H184.002V148.706H256.555V147.706ZM257.055 151.891V148.206H256.055V151.891H257.055ZM184.002 152.391H256.555V151.391H184.002V152.391ZM183.502 148.206V151.891H184.502V148.206H183.502ZM184.002 164.145H256.555V163.145H184.002V164.145ZM184.502 167.323V163.645H183.502V167.323H184.502ZM256.555 166.823H184.002V167.823H256.555V166.823ZM256.055 163.645V167.323H257.055V163.645H256.055ZM256.555 178.592H184.002V179.592H256.555V178.592ZM257.055 182.77V179.092H256.055V182.77H257.055ZM184.002 183.27H256.555V182.27H184.002V183.27ZM183.502 179.092V182.77H184.502V179.092H183.502ZM184.002 195.039H256.555V194.039H184.002V195.039ZM184.502 198.217V194.539H183.502V198.217H184.502ZM256.555 197.717H184.002V198.717H256.555V197.717ZM256.055 194.539V198.217H257.055V194.539H256.055ZM256.555 209.478H184.002V210.478H256.555V209.478ZM257.055 213.656V209.978H256.055V213.656H257.055ZM184.002 214.156H256.555V213.156H184.002V214.156ZM183.502 209.978V213.656H184.502V209.978H183.502Z" fill="#4BE6EB" mask="url(#path-2-inside-1_9_1202)"/>
</g>
<defs>
<filter id="filter0_b_9_1202" x="161.089" y="101.488" width="118.386" height="150.654" filterUnits="userSpaceOnUse" color-interpolation-filters="sRGB">
<feFlood flood-opacity="0" result="BackgroundImageFix"/>
<feGaussianBlur in="BackgroundImageFix" stdDeviation="5"/>
<feComposite in2="SourceAlpha" operator="in" result="effect1_backgroundBlur_9_1202"/>
<feBlend mode="normal" in="SourceGraphic" in2="effect1_backgroundBlur_9_1202" result="shape"/>
</filter>
<linearGradient id="paint0_linear_9_1202" x1="220.252" y1="262.243" x2="220.252" y2="97.5291" gradientUnits="userSpaceOnUse">
<stop stop-color="#87E5F1"/>
<stop offset="0.414795" stop-color="#87E5F1"/>
<stop offset="1" stop-color="#B5F5F7" stop-opacity="0"/>
</linearGradient>
</defs>
</svg>
