<svg width="300" height="301" viewBox="0 0 300 301" fill="none" xmlns="http://www.w3.org/2000/svg">
<path d="M93.5547 111.871C94.327 109.999 96.1519 108.778 98.1766 108.778H225.049C228.478 108.778 230.89 112.151 229.78 115.396L205.333 186.875C204.642 188.898 202.74 190.257 200.603 190.257H68.6813C65.1208 190.257 62.7012 186.641 64.0594 183.35L93.5547 111.871Z" fill="#1E73FF"/>
<path d="M66.2092 62.304C63.4477 62.304 61.2092 64.5425 61.2092 67.304V166.103L86.9893 96.9036H200.713C203.475 96.9036 205.713 94.665 205.713 91.9036V82.9077C205.713 80.1463 203.475 77.9077 200.713 77.9077H123.186L117.589 65.2782C116.788 63.4699 114.996 62.304 113.018 62.304H66.2092Z" fill="#1E73FF"/>
<g filter="url(#filter0_b_9_1099)">
<path d="M180.069 137.292V182.942H147.305C146.64 182.942 145.965 182.981 145.361 183.257C144.449 183.675 143.409 184.478 142.863 185.813C142.218 187.391 142.993 189.112 143.929 190.537L190.841 261.882L237.551 190.399C238.33 189.206 238.952 187.831 238.644 186.44C238.431 185.48 237.959 184.468 237.043 183.725C236.194 183.037 235.043 182.942 233.951 182.942H201.136V137.292H180.069Z" fill="url(#paint0_linear_9_1099)"/>
<path d="M180.069 137.292V182.942H147.305C146.64 182.942 145.965 182.981 145.361 183.257C144.449 183.675 143.409 184.478 142.863 185.813C142.218 187.391 142.993 189.112 143.929 190.537L190.841 261.882L237.551 190.399C238.33 189.206 238.952 187.831 238.644 186.44C238.431 185.48 237.959 184.468 237.043 183.725C236.194 183.037 235.043 182.942 233.951 182.942H201.136V137.292H180.069Z" stroke="#4BE6EB" stroke-width="0.5"/>
</g>
<defs>
<filter id="filter0_b_9_1099" x="132.375" y="127.042" width="116.599" height="145.296" filterUnits="userSpaceOnUse" color-interpolation-filters="sRGB">
<feFlood flood-opacity="0" result="BackgroundImageFix"/>
<feGaussianBlur in="BackgroundImageFix" stdDeviation="5"/>
<feComposite in2="SourceAlpha" operator="in" result="effect1_backgroundBlur_9_1099"/>
<feBlend mode="normal" in="SourceGraphic" in2="effect1_backgroundBlur_9_1099" result="shape"/>
</filter>
<linearGradient id="paint0_linear_9_1099" x1="190.607" y1="281.05" x2="190.607" y2="123.981" gradientUnits="userSpaceOnUse">
<stop stop-color="#87E5F1"/>
<stop offset="0.414795" stop-color="#87E5F1"/>
<stop offset="1" stop-color="#B5F5F7" stop-opacity="0"/>
</linearGradient>
</defs>
</svg>
