<svg width="300" height="301" viewBox="0 0 300 301" fill="none" xmlns="http://www.w3.org/2000/svg">
<path d="M46.427 154.736V201.27C46.427 214.117 83.8169 224.531 129.943 224.531C176.069 224.531 213.459 214.117 213.459 201.27V154.736H46.427Z" fill="#A5FFCD"/>
<path d="M46.427 107.244V153.777C46.427 166.624 83.8169 177.038 129.943 177.038C176.069 177.038 213.459 166.624 213.459 153.777V107.244H46.427Z" fill="#1E73FF"/>
<path d="M46.427 60.0389V106.573C46.427 119.419 83.8169 129.833 129.943 129.833C176.069 129.833 213.459 119.419 213.459 106.573V60.0389H46.427Z" fill="#A5FFCD"/>
<path d="M129.943 83.2997C176.068 83.2997 213.459 72.8855 213.459 60.0389C213.459 47.1923 176.068 36.778 129.943 36.778C83.8185 36.778 46.427 47.1923 46.427 60.0389C46.427 72.8855 83.8185 83.2997 129.943 83.2997Z" fill="#1E73FF"/>
<circle r="6.88078" transform="matrix(1 0 0 -1 92.1435 105.584)" fill="#1E73FF"/>
<circle r="6.88078" transform="matrix(1 0 0 -1 92.1435 152.118)" fill="#A5FFCD"/>
<circle r="6.88078" transform="matrix(1 0 0 -1 92.1435 196.514)" fill="#1E73FF"/>
<circle r="6.88078" transform="matrix(1 0 0 -1 131.142 107.244)" fill="#1E73FF"/>
<circle r="6.88078" transform="matrix(1 0 0 -1 131.142 153.778)" fill="#A5FFCD"/>
<circle r="6.88078" transform="matrix(1 0 0 -1 131.142 198.173)" fill="#1E73FF"/>
<circle r="6.88078" transform="matrix(1 0 0 -1 168.571 105.584)" fill="#1E73FF"/>
<circle r="6.88078" transform="matrix(1 0 0 -1 168.571 152.118)" fill="#A5FFCD"/>
<circle r="6.88078" transform="matrix(1 0 0 -1 168.571 196.514)" fill="#1E73FF"/>
<g filter="url(#filter0_b_9_1220)">
<path fill-rule="evenodd" clip-rule="evenodd" d="M194.008 155.238V169.362L186.663 172.824L176.969 163.234L157.097 182.967L166.721 192.626L163.744 199.966H150V228.112H163.744L166.791 235.382L157.166 245.076L176.935 264.982L186.663 255.323L193.968 258.37V271.941H222.044V258.405L229.384 255.358L239.147 264.948L258.958 245.145L249.315 235.501L252.319 228.085L266.063 228.221V199.991H252.452L249.301 192.664L258.899 183.155L239.033 163.218L229.426 172.888L222.258 169.362V155.238H194.008ZM208.031 238.467C221.52 238.467 232.455 227.532 232.455 214.043C232.455 200.554 221.52 189.62 208.031 189.62C194.543 189.62 183.608 200.554 183.608 214.043C183.608 227.532 194.543 238.467 208.031 238.467Z" fill="url(#paint0_linear_9_1220)"/>
<path d="M194.008 169.362L194.115 169.588L194.258 169.521V169.362H194.008ZM194.008 155.238V154.988H193.758V155.238H194.008ZM186.663 172.824L186.487 173.001L186.611 173.124L186.769 173.05L186.663 172.824ZM176.969 163.234L177.145 163.056L176.969 162.882L176.793 163.056L176.969 163.234ZM157.097 182.967L156.921 182.79L156.743 182.966L156.92 183.144L157.097 182.967ZM166.721 192.626L166.953 192.72L167.015 192.567L166.899 192.45L166.721 192.626ZM163.744 199.966V200.216H163.912L163.976 200.06L163.744 199.966ZM150 199.966V199.716H149.75V199.966H150ZM150 228.112H149.75V228.362H150V228.112ZM163.744 228.112L163.975 228.015L163.91 227.862H163.744V228.112ZM166.791 235.382L166.968 235.558L167.086 235.44L167.021 235.286L166.791 235.382ZM157.166 245.076L156.989 244.9L156.814 245.076L156.989 245.252L157.166 245.076ZM176.935 264.982L176.757 265.159L176.933 265.336L177.111 265.16L176.935 264.982ZM186.663 255.323L186.759 255.093L186.605 255.028L186.486 255.146L186.663 255.323ZM193.968 258.37H194.218V258.203L194.064 258.139L193.968 258.37ZM193.968 271.941H193.718V272.191H193.968V271.941ZM222.044 271.941V272.191H222.294V271.941H222.044ZM222.044 258.405L221.949 258.174L221.794 258.238V258.405H222.044ZM229.384 255.358L229.559 255.18L229.441 255.064L229.288 255.127L229.384 255.358ZM239.147 264.948L238.972 265.126L239.148 265.3L239.324 265.125L239.147 264.948ZM258.958 245.145L259.135 245.322L259.312 245.145L259.135 244.968L258.958 245.145ZM249.315 235.501L249.083 235.408L249.021 235.561L249.138 235.678L249.315 235.501ZM252.319 228.085L252.321 227.835L252.151 227.833L252.087 227.991L252.319 228.085ZM266.063 228.221L266.06 228.471L266.313 228.473V228.221H266.063ZM266.063 199.991H266.313V199.741H266.063V199.991ZM252.452 199.991L252.223 200.09L252.288 200.241H252.452V199.991ZM249.301 192.664L249.125 192.487L249.004 192.607L249.071 192.763L249.301 192.664ZM258.899 183.155L259.075 183.332L259.253 183.156L259.076 182.978L258.899 183.155ZM239.033 163.218L239.21 163.041L239.033 162.863L238.856 163.041L239.033 163.218ZM229.426 172.888L229.315 173.112L229.476 173.192L229.603 173.064L229.426 172.888ZM222.258 169.362H222.008V169.518L222.147 169.587L222.258 169.362ZM222.258 155.238H222.508V154.988H222.258V155.238ZM194.258 169.362V155.238H193.758V169.362H194.258ZM186.769 173.05L194.115 169.588L193.902 169.136L186.556 172.597L186.769 173.05ZM176.793 163.412L186.487 173.001L186.838 172.646L177.145 163.056L176.793 163.412ZM157.273 183.145L177.145 163.411L176.793 163.056L156.921 182.79L157.273 183.145ZM166.899 192.45L157.274 182.791L156.92 183.144L166.544 192.803L166.899 192.45ZM163.976 200.06L166.953 192.72L166.49 192.532L163.512 199.872L163.976 200.06ZM150 200.216H163.744V199.716H150V200.216ZM150.25 228.112V199.966H149.75V228.112H150.25ZM163.744 227.862H150V228.362H163.744V227.862ZM167.021 235.286L163.975 228.015L163.514 228.209L166.56 235.479L167.021 235.286ZM157.344 245.252L166.968 235.558L166.613 235.206L156.989 244.9L157.344 245.252ZM177.112 264.806L157.344 244.9L156.989 245.252L176.757 265.159L177.112 264.806ZM186.486 255.146L176.758 264.805L177.111 265.16L186.839 255.501L186.486 255.146ZM194.064 258.139L186.759 255.093L186.566 255.554L193.871 258.601L194.064 258.139ZM194.218 271.941V258.37H193.718V271.941H194.218ZM222.044 271.691H193.968V272.191H222.044V271.691ZM221.794 258.405V271.941H222.294V258.405H221.794ZM229.288 255.127L221.949 258.174L222.14 258.635L229.48 255.589L229.288 255.127ZM239.322 264.769L229.559 255.18L229.209 255.536L238.972 265.126L239.322 264.769ZM258.781 244.968L238.97 264.771L239.324 265.125L259.135 245.322L258.781 244.968ZM249.138 235.678L258.781 245.322L259.135 244.968L249.492 235.325L249.138 235.678ZM252.087 227.991L249.083 235.408L249.547 235.595L252.551 228.179L252.087 227.991ZM266.065 227.971L252.321 227.835L252.317 228.335L266.06 228.471L266.065 227.971ZM265.813 199.991V228.221H266.313V199.991H265.813ZM252.452 200.241H266.063V199.741H252.452V200.241ZM249.071 192.763L252.223 200.09L252.682 199.892L249.531 192.566L249.071 192.763ZM258.723 182.977L249.125 192.487L249.477 192.842L259.075 183.332L258.723 182.977ZM238.856 163.394L258.722 183.331L259.076 182.978L239.21 163.041L238.856 163.394ZM229.603 173.064L239.211 163.394L238.856 163.041L229.248 172.712L229.603 173.064ZM222.147 169.587L229.315 173.112L229.536 172.664L222.368 169.138L222.147 169.587ZM222.008 155.238V169.362H222.508V155.238H222.008ZM194.008 155.488H222.258V154.988H194.008V155.488ZM232.205 214.043C232.205 227.394 221.382 238.217 208.031 238.217V238.717C221.658 238.717 232.705 227.67 232.705 214.043H232.205ZM208.031 189.87C221.382 189.87 232.205 200.693 232.205 214.043H232.705C232.705 200.416 221.658 189.37 208.031 189.37V189.87ZM183.858 214.043C183.858 200.693 194.681 189.87 208.031 189.87V189.37C194.405 189.37 183.358 200.416 183.358 214.043H183.858ZM208.031 238.217C194.681 238.217 183.858 227.394 183.858 214.043H183.358C183.358 227.67 194.405 238.717 208.031 238.717V238.217Z" fill="#4BE6EB"/>
</g>
<defs>
<filter id="filter0_b_9_1220" x="139.75" y="144.988" width="136.563" height="137.203" filterUnits="userSpaceOnUse" color-interpolation-filters="sRGB">
<feFlood flood-opacity="0" result="BackgroundImageFix"/>
<feGaussianBlur in="BackgroundImageFix" stdDeviation="5"/>
<feComposite in2="SourceAlpha" operator="in" result="effect1_backgroundBlur_9_1220"/>
<feBlend mode="normal" in="SourceGraphic" in2="effect1_backgroundBlur_9_1220" result="shape"/>
</filter>
<linearGradient id="paint0_linear_9_1220" x1="207.996" y1="289.895" x2="207.996" y2="142.769" gradientUnits="userSpaceOnUse">
<stop stop-color="#87E5F1"/>
<stop offset="0.414795" stop-color="#87E5F1"/>
<stop offset="1" stop-color="#B5F5F7" stop-opacity="0"/>
</linearGradient>
</defs>
</svg>
