<svg width="300" height="301" viewBox="0 0 300 301" fill="none" xmlns="http://www.w3.org/2000/svg">
<path fill-rule="evenodd" clip-rule="evenodd" d="M184.525 115.556C189.105 110.296 193.685 105.036 198.255 99.7856C198.289 99.746 198.321 99.7055 198.352 99.6651C198.424 99.5731 198.495 99.4821 198.585 99.4056C201.715 96.7756 202.475 94.2756 200.565 89.9756C196.855 81.6156 200.615 71.8656 208.345 66.9156C216.025 61.9956 226.155 63.0356 232.695 69.4156C239.225 75.7856 240.515 85.8956 235.785 93.6956C231.035 101.526 221.545 105.036 212.825 102.186C212.177 101.975 211.53 101.747 210.809 101.493C210.573 101.41 210.329 101.324 210.075 101.236C209.102 102.356 208.127 103.475 207.152 104.595C202.191 110.295 197.225 116 192.335 121.776C191.925 122.266 192.155 123.606 192.495 124.366C198.585 137.916 188.635 152.886 173.805 152.406C162.105 152.026 153.135 141.006 155.235 129.456C155.525 127.856 155.195 127.086 153.825 126.296C150.187 124.193 146.585 122.02 142.987 119.849C141.69 119.067 140.393 118.284 139.095 117.506C132.125 123.216 124.665 124.546 116.435 120.826C115.855 120.566 114.675 120.926 114.125 121.406C111.981 123.256 109.864 125.14 107.748 127.024L107.747 127.025L107.746 127.025C105.391 129.121 103.036 131.217 100.645 133.266C99.4254 134.316 99.3354 135.176 99.8054 136.646C103.105 147.046 97.3254 158.116 87.0254 161.346C78.3654 164.056 69.0054 160.566 64.2654 152.846C59.5454 145.146 60.7054 135.156 67.0654 128.736C73.4454 122.296 83.3354 121.036 91.1554 125.666C91.4629 125.849 91.7645 126.041 92.0996 126.255L92.1007 126.255C92.3865 126.437 92.6966 126.635 93.0554 126.856C93.8948 126.111 94.7364 125.365 95.5791 124.619L95.5807 124.618C99.5559 121.097 103.555 117.556 107.465 113.926C107.895 113.526 107.745 112.126 107.425 111.376C104.015 103.426 105.675 94.7756 111.835 88.9156C117.985 83.0556 127.245 81.8156 134.715 85.8556C142.285 89.9456 146.375 98.4656 144.665 106.886C144.335 108.526 144.615 109.416 146.135 110.266C148.54 111.617 150.904 113.043 153.269 114.469C155.174 115.617 157.079 116.765 159.005 117.876C159.645 118.246 160.905 118.456 161.345 118.096C168.465 112.206 176.145 111.556 184.525 115.546V115.556Z" fill="#1E73FF"/>
<g filter="url(#filter0_b_3_590)">
<mask id="path-2-inside-1_3_590" fill="white">
<path fill-rule="evenodd" clip-rule="evenodd" d="M118.162 129.92H120.511V239.176H81.77V129.92H118.162C118.162 129.92 118.162 129.92 118.162 129.92Z"/>
</mask>
<path fill-rule="evenodd" clip-rule="evenodd" d="M118.162 129.92H120.511V239.176H81.77V129.92H118.162C118.162 129.92 118.162 129.92 118.162 129.92Z" fill="url(#paint0_linear_3_590)"/>
<path d="M120.511 129.92H121.011V129.42H120.511V129.92ZM120.511 239.176V239.676H121.011V239.176H120.511ZM81.77 239.176H81.27V239.676H81.77V239.176ZM81.77 129.92V129.42H81.27V129.92H81.77ZM118.162 130.42H120.511V129.42H118.162V130.42ZM120.011 129.92V239.176H121.011V129.92H120.011ZM120.511 238.676H81.77V239.676H120.511V238.676ZM82.27 239.176V129.92H81.27V239.176H82.27ZM81.77 130.42H118.162V129.42H81.77V130.42ZM118.162 130.42C118.162 130.42 118.162 130.42 118.162 130.42H118.162C118.162 130.42 118.162 130.42 118.162 130.42C118.162 130.42 118.162 130.42 118.162 130.42H118.162C118.162 130.42 118.162 130.42 118.162 130.42C118.162 130.42 118.162 130.42 118.162 130.42H118.162C118.162 130.42 118.162 130.42 118.162 130.42C118.162 130.42 118.162 130.42 118.162 130.42H118.162C118.162 130.42 118.162 130.42 118.162 130.42H118.162C118.162 130.42 118.162 130.42 118.162 130.42C118.162 130.42 118.162 130.42 118.162 130.42H118.162C118.162 130.42 118.162 130.42 118.162 130.42H118.162C118.162 130.42 118.162 130.42 118.162 130.42C118.162 130.42 118.162 130.42 118.162 130.42H118.162C118.162 130.42 118.162 130.42 118.162 130.42H118.162C118.162 130.42 118.162 130.42 118.162 130.42C118.162 130.42 118.162 130.42 118.162 130.42C118.162 130.42 118.162 130.42 118.162 130.42C118.162 130.42 118.162 130.42 118.162 130.42H118.162C118.162 130.42 118.162 130.42 118.162 130.42H118.162C118.162 130.42 118.162 130.42 118.162 130.42C118.162 130.42 118.162 130.42 118.162 130.42C118.162 130.42 118.162 130.42 118.162 130.42C118.162 130.42 118.162 130.42 118.162 130.42H118.162C118.162 130.42 118.162 130.42 118.162 130.42H118.162C118.162 130.42 118.162 130.42 118.162 130.42H118.162C118.162 130.42 118.162 130.42 118.162 130.42C118.162 130.42 118.162 130.42 118.162 130.42H118.162C118.162 130.42 118.162 130.42 118.162 130.42H118.162C118.162 130.42 118.162 130.42 118.162 130.42H118.162C118.162 130.42 118.162 130.42 118.162 130.42C118.162 130.42 118.162 130.42 118.162 130.42C118.162 130.42 118.162 130.42 118.162 130.42C118.162 130.42 118.162 130.42 118.162 130.42H118.162C118.162 130.42 118.162 130.42 118.162 130.42H118.162C118.162 130.42 118.162 130.42 118.162 130.42C118.162 130.42 118.162 130.42 118.162 130.42C118.162 130.42 118.162 130.42 118.162 130.42C118.162 130.42 118.162 130.42 118.162 130.42H118.162C118.162 130.42 118.162 130.42 118.162 130.42H118.162C118.162 130.42 118.162 130.42 118.162 130.42C118.162 130.42 118.162 130.42 118.162 130.42H118.162C118.162 130.42 118.162 130.42 118.162 130.42H118.162C118.162 130.42 118.162 130.42 118.162 130.42C118.162 130.42 118.162 130.42 118.162 130.42H118.162C118.162 130.42 118.162 130.42 118.162 130.42H118.162C118.162 130.42 118.162 130.42 118.162 130.42C118.162 130.42 118.162 130.42 118.162 130.42H118.162C118.162 130.42 118.162 130.42 118.162 130.42C118.162 130.42 118.162 130.42 118.162 130.42H118.162C118.162 130.42 118.162 130.42 118.162 130.42C118.162 130.42 118.162 130.42 118.162 130.42H118.162C118.162 130.42 118.162 130.42 118.162 130.42V129.42C118.162 129.42 118.162 129.42 118.162 129.42H118.162C118.162 129.42 118.162 129.42 118.162 129.42C118.162 129.42 118.162 129.42 118.162 129.42H118.162C118.162 129.42 118.162 129.42 118.162 129.42C118.162 129.42 118.162 129.42 118.162 129.42H118.162C118.162 129.42 118.162 129.42 118.162 129.42C118.162 129.42 118.162 129.42 118.162 129.42H118.162C118.162 129.42 118.162 129.42 118.162 129.42H118.162C118.162 129.42 118.162 129.42 118.162 129.42C118.162 129.42 118.162 129.42 118.162 129.42H118.162C118.162 129.42 118.162 129.42 118.162 129.42H118.162C118.162 129.42 118.162 129.42 118.162 129.42C118.162 129.42 118.162 129.42 118.162 129.42H118.162C118.162 129.42 118.162 129.42 118.162 129.42H118.162C118.162 129.42 118.162 129.42 118.162 129.42C118.162 129.42 118.162 129.42 118.162 129.42C118.162 129.42 118.162 129.42 118.162 129.42C118.162 129.42 118.162 129.42 118.162 129.42H118.162C118.162 129.42 118.162 129.42 118.162 129.42H118.162C118.162 129.42 118.162 129.42 118.162 129.42C118.162 129.42 118.162 129.42 118.162 129.42C118.162 129.42 118.162 129.42 118.162 129.42C118.162 129.42 118.162 129.42 118.162 129.42H118.162C118.162 129.42 118.162 129.42 118.162 129.42H118.162C118.162 129.42 118.162 129.42 118.162 129.42H118.162C118.162 129.42 118.162 129.42 118.162 129.42C118.162 129.42 118.162 129.42 118.162 129.42H118.162C118.162 129.42 118.162 129.42 118.162 129.42H118.162C118.162 129.42 118.162 129.42 118.162 129.42H118.162C118.162 129.42 118.162 129.42 118.162 129.42C118.162 129.42 118.162 129.42 118.162 129.42C118.162 129.42 118.162 129.42 118.162 129.42C118.162 129.42 118.162 129.42 118.162 129.42H118.162C118.162 129.42 118.162 129.42 118.162 129.42H118.162C118.162 129.42 118.162 129.42 118.162 129.42C118.162 129.42 118.162 129.42 118.162 129.42C118.162 129.42 118.162 129.42 118.162 129.42C118.162 129.42 118.162 129.42 118.162 129.42H118.162C118.162 129.42 118.162 129.42 118.162 129.42H118.162C118.162 129.42 118.162 129.42 118.162 129.42C118.162 129.42 118.162 129.42 118.162 129.42H118.162C118.162 129.42 118.162 129.42 118.162 129.42H118.162C118.162 129.42 118.162 129.42 118.162 129.42C118.162 129.42 118.162 129.42 118.162 129.42H118.162C118.162 129.42 118.162 129.42 118.162 129.42H118.162C118.162 129.42 118.162 129.42 118.162 129.42C118.162 129.42 118.162 129.42 118.162 129.42H118.162C118.162 129.42 118.162 129.42 118.162 129.42C118.162 129.42 118.162 129.42 118.162 129.42H118.162C118.162 129.42 118.162 129.42 118.162 129.42C118.162 129.42 118.162 129.42 118.162 129.42H118.162C118.162 129.42 118.162 129.42 118.162 129.42V130.42Z" fill="#4BE6EB" mask="url(#path-2-inside-1_3_590)"/>
<mask id="path-4-inside-2_3_590" fill="white">
<path fill-rule="evenodd" clip-rule="evenodd" d="M169.74 129.92H130.29V144.66V189.326V239.176H169.74V170.463V129.92Z"/>
</mask>
<path fill-rule="evenodd" clip-rule="evenodd" d="M169.74 129.92H130.29V144.66V189.326V239.176H169.74V170.463V129.92Z" fill="url(#paint1_linear_3_590)"/>
<path d="M130.29 129.92V129.42H129.79V129.92H130.29ZM169.74 129.92H170.24V129.42H169.74V129.92ZM130.29 239.176H129.79V239.676H130.29V239.176ZM169.74 239.176V239.676H170.24V239.176H169.74ZM130.29 130.42H169.74V129.42H130.29V130.42ZM130.79 144.66V129.92H129.79V144.66H130.79ZM130.79 189.326V144.66H129.79V189.326H130.79ZM130.79 239.176V189.326H129.79V239.176H130.79ZM169.74 238.676H130.29V239.676H169.74V238.676ZM169.24 170.463V239.176H170.24V170.463H169.24ZM169.24 129.92V170.463H170.24V129.92H169.24Z" fill="#4BE6EB" mask="url(#path-4-inside-2_3_590)"/>
<mask id="path-6-inside-3_3_590" fill="white">
<path fill-rule="evenodd" clip-rule="evenodd" d="M218.92 129.92H179.47V144.66V189.326V239.176H218.92V170.463V129.92Z"/>
</mask>
<path fill-rule="evenodd" clip-rule="evenodd" d="M218.92 129.92H179.47V144.66V189.326V239.176H218.92V170.463V129.92Z" fill="url(#paint2_linear_3_590)"/>
<path d="M179.47 129.92V129.42H178.97V129.92H179.47ZM218.92 129.92H219.42V129.42H218.92V129.92ZM179.47 239.176H178.97V239.676H179.47V239.176ZM218.92 239.176V239.676H219.42V239.176H218.92ZM179.47 130.42H218.92V129.42H179.47V130.42ZM179.97 144.66V129.92H178.97V144.66H179.97ZM179.97 189.326V144.66H178.97V189.326H179.97ZM179.97 239.176V189.326H178.97V239.176H179.97ZM218.92 238.676H179.47V239.676H218.92V238.676ZM218.42 170.463V239.176H219.42V170.463H218.42ZM218.42 129.92V170.463H219.42V129.92H218.42Z" fill="#4BE6EB" mask="url(#path-6-inside-3_3_590)"/>
</g>
<defs>
<filter id="filter0_b_3_590" x="71.77" y="119.92" width="157.15" height="129.255" filterUnits="userSpaceOnUse" color-interpolation-filters="sRGB">
<feFlood flood-opacity="0" result="BackgroundImageFix"/>
<feGaussianBlur in="BackgroundImageFix" stdDeviation="5"/>
<feComposite in2="SourceAlpha" operator="in" result="effect1_backgroundBlur_3_590"/>
<feBlend mode="normal" in="SourceGraphic" in2="effect1_backgroundBlur_3_590" result="shape"/>
</filter>
<linearGradient id="paint0_linear_3_590" x1="101.129" y1="255.984" x2="106.654" y2="102.493" gradientUnits="userSpaceOnUse">
<stop stop-color="#87E5F1"/>
<stop offset="0.468591" stop-color="#87E5F1"/>
<stop offset="1" stop-color="#B5F5F7" stop-opacity="0"/>
</linearGradient>
<linearGradient id="paint1_linear_3_590" x1="150.003" y1="255.984" x2="155.429" y2="102.486" gradientUnits="userSpaceOnUse">
<stop stop-color="#87E5F1"/>
<stop offset="0.468591" stop-color="#87E5F1"/>
<stop offset="1" stop-color="#B5F5F7" stop-opacity="0"/>
</linearGradient>
<linearGradient id="paint2_linear_3_590" x1="199.183" y1="255.984" x2="204.609" y2="102.486" gradientUnits="userSpaceOnUse">
<stop stop-color="#87E5F1"/>
<stop offset="0.468591" stop-color="#87E5F1"/>
<stop offset="1" stop-color="#B5F5F7" stop-opacity="0"/>
</linearGradient>
</defs>
</svg>
