<svg width="300" height="301" viewBox="0 0 300 301" fill="none" xmlns="http://www.w3.org/2000/svg">
<path d="M187.873 50.6309H69.4526C65.5866 50.6309 62.4526 53.7649 62.4526 57.6309V219.481C62.4526 223.347 65.5866 226.481 69.4526 226.481H187.873C191.739 226.481 194.873 223.347 194.873 219.481V57.6309C194.873 53.7649 191.739 50.6309 187.873 50.6309Z" fill="#1E73FF"/>
<path d="M177.483 79.2609H79.8325V84.2109H177.483V79.2609Z" fill="#A5FFCD"/>
<path d="M177.483 100.051H79.8325V105.011H177.483V100.051Z" fill="#A5FFCD"/>
<path d="M177.483 120.831H79.8325V125.781H177.483V120.831Z" fill="#A5FFCD"/>
<path d="M177.483 141.621H79.8325V146.571H177.483V141.621Z" fill="#A5FFCD"/>
<path d="M177.483 162.411H79.8325V167.361H177.483V162.411Z" fill="#A5FFCD"/>
<path d="M177.483 183.191H79.8325V188.141H177.483V183.191Z" fill="#A5FFCD"/>
<g filter="url(#filter0_b_9_1188)">
<path fill-rule="evenodd" clip-rule="evenodd" d="M169.949 171.738V184.989L163.058 188.236L153.963 179.24L135.32 197.753L144.35 206.814L141.556 213.7H128.662V240.105H141.557L144.415 246.926L135.385 256.02L153.931 274.696L163.058 265.634L169.911 268.492V281.224H196.251V268.525L203.137 265.666L212.296 274.663L230.882 256.085L221.835 247.038L224.654 240.08L237.547 240.208V213.723H224.779L221.822 206.85L230.826 197.929L212.19 179.224L203.176 188.297L196.451 184.989V171.738H169.949ZM183.105 260.688C201.762 260.688 216.887 245.564 216.887 226.907C216.887 208.25 201.762 193.125 183.105 193.125C164.448 193.125 149.323 208.25 149.323 226.907C149.323 245.564 164.448 260.688 183.105 260.688Z" fill="url(#paint0_linear_9_1188)"/>
<path d="M169.949 184.989L170.056 185.215L170.199 185.148V184.989H169.949ZM169.949 171.738V171.488H169.699V171.738H169.949ZM163.058 188.236L162.882 188.414L163.006 188.537L163.164 188.462L163.058 188.236ZM153.963 179.24L154.139 179.062L153.963 178.888L153.787 179.062L153.963 179.24ZM135.32 197.753L135.144 197.575L134.967 197.752L135.143 197.929L135.32 197.753ZM144.35 206.814L144.581 206.908L144.644 206.755L144.527 206.638L144.35 206.814ZM141.556 213.7V213.95H141.725L141.788 213.794L141.556 213.7ZM128.662 213.7V213.45H128.412V213.7H128.662ZM128.662 240.105H128.412V240.355H128.662V240.105ZM141.557 240.105L141.787 240.009L141.723 239.855H141.557V240.105ZM144.415 246.926L144.592 247.102L144.71 246.983L144.645 246.829L144.415 246.926ZM135.385 256.02L135.208 255.844L135.033 256.02L135.208 256.196L135.385 256.02ZM153.931 274.696L153.754 274.872L153.93 275.049L154.107 274.873L153.931 274.696ZM163.058 265.634L163.154 265.403L163 265.339L162.881 265.457L163.058 265.634ZM169.911 268.492H170.161V268.325L170.007 268.261L169.911 268.492ZM169.911 281.224H169.661V281.474H169.911V281.224ZM196.251 281.224V281.474H196.501V281.224H196.251ZM196.251 268.525L196.155 268.294L196.001 268.358V268.525H196.251ZM203.137 265.666L203.312 265.488L203.194 265.372L203.041 265.435L203.137 265.666ZM212.296 274.663L212.121 274.841L212.298 275.015L212.473 274.84L212.296 274.663ZM230.882 256.085L231.059 256.262L231.236 256.085L231.059 255.908L230.882 256.085ZM221.835 247.038L221.604 246.944L221.541 247.097L221.658 247.215L221.835 247.038ZM224.654 240.08L224.656 239.83L224.486 239.828L224.422 239.986L224.654 240.08ZM237.547 240.208L237.545 240.458L237.797 240.46V240.208H237.547ZM237.547 213.723H237.797V213.473H237.547V213.723ZM224.779 213.723L224.549 213.822L224.614 213.973H224.779V213.723ZM221.822 206.85L221.646 206.672L221.525 206.792L221.593 206.949L221.822 206.85ZM230.826 197.929L231.002 198.106L231.18 197.93L231.003 197.752L230.826 197.929ZM212.19 179.224L212.367 179.048L212.189 178.87L212.012 179.048L212.19 179.224ZM203.176 188.297L203.066 188.521L203.227 188.6L203.353 188.473L203.176 188.297ZM196.451 184.989H196.201V185.145L196.341 185.213L196.451 184.989ZM196.451 171.738H196.701V171.488H196.451V171.738ZM170.199 184.989V171.738H169.699V184.989H170.199ZM163.164 188.462L170.056 185.215L169.842 184.763L162.951 188.01L163.164 188.462ZM153.788 179.417L162.882 188.414L163.233 188.059L154.139 179.062L153.788 179.417ZM135.497 197.93L154.14 179.417L153.787 179.062L135.144 197.575L135.497 197.93ZM144.527 206.638L135.498 197.576L135.143 197.929L144.173 206.991L144.527 206.638ZM141.788 213.794L144.581 206.908L144.118 206.72L141.325 213.606L141.788 213.794ZM128.662 213.95H141.556V213.45H128.662V213.95ZM128.912 240.105V213.7H128.412V240.105H128.912ZM141.557 239.855H128.662V240.355H141.557V239.855ZM144.645 246.829L141.787 240.009L141.326 240.202L144.184 247.023L144.645 246.829ZM135.563 256.196L144.592 247.102L144.237 246.75L135.208 255.844L135.563 256.196ZM154.109 274.519L135.563 255.844L135.208 256.196L153.754 274.872L154.109 274.519ZM162.881 265.457L153.755 274.518L154.107 274.873L163.234 265.811L162.881 265.457ZM170.007 268.261L163.154 265.403L162.961 265.865L169.815 268.723L170.007 268.261ZM170.161 281.224V268.492H169.661V281.224H170.161ZM196.251 280.974H169.911V281.474H196.251V280.974ZM196.001 268.525V281.224H196.501V268.525H196.001ZM203.041 265.435L196.155 268.294L196.347 268.755L203.233 265.897L203.041 265.435ZM212.471 274.485L203.312 265.488L202.962 265.845L212.121 274.841L212.471 274.485ZM230.705 255.908L212.119 274.486L212.473 274.84L231.059 256.262L230.705 255.908ZM221.658 247.215L230.705 256.262L231.059 255.908L222.012 246.861L221.658 247.215ZM224.422 239.986L221.604 246.944L222.067 247.132L224.885 240.174L224.422 239.986ZM237.55 239.958L224.656 239.83L224.651 240.33L237.545 240.458L237.55 239.958ZM237.297 213.723V240.208H237.797V213.723H237.297ZM224.779 213.973H237.547V213.473H224.779V213.973ZM221.593 206.949L224.549 213.822L225.008 213.625L222.052 206.751L221.593 206.949ZM230.65 197.751L221.646 206.672L221.998 207.028L231.002 198.106L230.65 197.751ZM212.013 179.401L230.649 198.105L231.003 197.752L212.367 179.048L212.013 179.401ZM203.353 188.473L212.367 179.4L212.012 179.048L202.999 188.12L203.353 188.473ZM196.341 185.213L203.066 188.521L203.286 188.072L196.562 184.765L196.341 185.213ZM196.201 171.738V184.989H196.701V171.738H196.201ZM169.949 171.988H196.451V171.488H169.949V171.988ZM216.637 226.907C216.637 245.426 201.624 260.438 183.105 260.438V260.938C201.9 260.938 217.137 245.702 217.137 226.907H216.637ZM183.105 193.375C201.624 193.375 216.637 208.388 216.637 226.907H217.137C217.137 208.112 201.9 192.875 183.105 192.875V193.375ZM149.573 226.907C149.573 208.388 164.586 193.375 183.105 193.375V192.875C164.31 192.875 149.073 208.112 149.073 226.907H149.573ZM183.105 260.438C164.586 260.438 149.573 245.426 149.573 226.907H149.073C149.073 245.702 164.31 260.938 183.105 260.938V260.438Z" fill="#4BE6EB"/>
</g>
<defs>
<filter id="filter0_b_9_1188" x="118.412" y="161.488" width="129.385" height="129.986" filterUnits="userSpaceOnUse" color-interpolation-filters="sRGB">
<feFlood flood-opacity="0" result="BackgroundImageFix"/>
<feGaussianBlur in="BackgroundImageFix" stdDeviation="5"/>
<feComposite in2="SourceAlpha" operator="in" result="effect1_backgroundBlur_9_1188"/>
<feBlend mode="normal" in="SourceGraphic" in2="effect1_backgroundBlur_9_1188" result="shape"/>
</filter>
<linearGradient id="paint0_linear_9_1188" x1="183.072" y1="298.068" x2="183.072" y2="160.041" gradientUnits="userSpaceOnUse">
<stop stop-color="#87E5F1"/>
<stop offset="0.414795" stop-color="#87E5F1"/>
<stop offset="1" stop-color="#B5F5F7" stop-opacity="0"/>
</linearGradient>
</defs>
</svg>
