<svg width="300" height="301" viewBox="0 0 300 301" fill="none" xmlns="http://www.w3.org/2000/svg">
<rect x="71.7441" y="47.3097" width="143.234" height="180.22" rx="9" fill="#1E73FF"/>
<path d="M92.0232 117.653L102.484 130.904L123.407 109.982" stroke="#A5FFCD" stroke-width="8"/>
<path d="M92.0232 166.418L102.484 179.669L123.407 158.746" stroke="#A5FFCD" stroke-width="8"/>
<path d="M141.693 109.982H192.604" stroke="#A5FFCD" stroke-width="8"/>
<path d="M141.693 158.746H192.604" stroke="#A5FFCD" stroke-width="8"/>
<path d="M141.693 120.443H177.261" stroke="#A5FFCD" stroke-width="8"/>
<path d="M141.693 169.208H177.261" stroke="#A5FFCD" stroke-width="8"/>
<path d="M141.693 130.904H167.148" stroke="#A5FFCD" stroke-width="8"/>
<path d="M141.693 179.669H167.148" stroke="#A5FFCD" stroke-width="8"/>
<g filter="url(#filter0_b_9_1361)">
<path fill-rule="evenodd" clip-rule="evenodd" d="M111.18 57.8721H71.7441V43.0041C71.7441 38.5858 75.3259 35.0041 79.7441 35.0041H113.645V35.0041H134.402C133.593 33.6197 132.814 32.2814 132.054 30.975C130.525 28.3469 129.07 25.8478 127.595 23.3614C126.56 21.6115 125.706 19.8715 126.642 17.6742C127.603 15.3973 129.304 15.119 131.169 15.119C138.333 15.1388 145.506 15.1488 152.67 15.119C154.461 15.119 156.129 15.3974 157.057 17.535C158.027 19.7721 157.238 21.6214 156.137 23.4608C154.56 26.0817 153.024 28.7369 151.38 31.5785C150.738 32.6889 150.079 33.8278 149.395 35.0041L162.94 35.0041H207.521C211.939 35.0041 215.521 38.5858 215.521 43.0041V57.8721L174.442 57.8721H111.18V57.8721Z" fill="#A5FFCD"/>
</g>
<g filter="url(#filter1_b_9_1361)">
<path fill-rule="evenodd" clip-rule="evenodd" d="M198.429 169.178V183.302L191.083 186.764L181.389 177.174L161.517 196.907L171.142 206.566L168.165 213.906H154.42V242.052H168.165L171.211 249.322L161.587 259.016L181.355 278.922L191.083 269.263L198.388 272.31V285.881H226.465V272.345L233.804 269.298L243.567 278.888L263.379 259.085L253.735 249.441L256.739 242.025L270.483 242.161V213.931H256.873L253.721 206.605L263.319 197.095L243.454 177.158L233.846 186.828L226.678 183.302V169.178H198.429ZM212.452 252.407C225.941 252.407 236.876 241.472 236.876 227.983C236.876 214.495 225.941 203.56 212.452 203.56C198.963 203.56 188.028 214.495 188.028 227.983C188.028 241.472 198.963 252.407 212.452 252.407Z" fill="url(#paint0_linear_9_1361)"/>
<path d="M198.429 183.302L198.535 183.528L198.679 183.461V183.302H198.429ZM198.429 169.178V168.928H198.179V169.178H198.429ZM191.083 186.764L190.907 186.941L191.031 187.064L191.19 186.99L191.083 186.764ZM181.389 177.174L181.565 176.996L181.389 176.822L181.213 176.997L181.389 177.174ZM161.517 196.907L161.341 196.73L161.164 196.906L161.34 197.084L161.517 196.907ZM171.142 206.566L171.373 206.66L171.436 206.507L171.319 206.39L171.142 206.566ZM168.165 213.906V214.156H168.333L168.396 214L168.165 213.906ZM154.42 213.906V213.656H154.17V213.906H154.42ZM154.42 242.052H154.17V242.302H154.42V242.052ZM168.165 242.052L168.395 241.955L168.331 241.802H168.165V242.052ZM171.211 249.322L171.389 249.498L171.506 249.38L171.442 249.226L171.211 249.322ZM161.587 259.016L161.409 258.84L161.234 259.016L161.409 259.192L161.587 259.016ZM181.355 278.922L181.178 279.099L181.354 279.276L181.531 279.1L181.355 278.922ZM191.083 269.263L191.179 269.033L191.025 268.968L190.907 269.086L191.083 269.263ZM198.388 272.31H198.638V272.143L198.484 272.079L198.388 272.31ZM198.388 285.881H198.138V286.131H198.388V285.881ZM226.465 285.881V286.131H226.715V285.881H226.465ZM226.465 272.345L226.369 272.114L226.215 272.178V272.345H226.465ZM233.804 269.298L233.98 269.12L233.861 269.004L233.708 269.067L233.804 269.298ZM243.567 278.888L243.392 279.066L243.569 279.24L243.744 279.065L243.567 278.888ZM263.379 259.085L263.555 259.262L263.732 259.085L263.555 258.908L263.379 259.085ZM253.735 249.441L253.504 249.348L253.441 249.501L253.558 249.618L253.735 249.441ZM256.739 242.025L256.742 241.775L256.572 241.773L256.508 241.931L256.739 242.025ZM270.483 242.161L270.481 242.411L270.733 242.414V242.161H270.483ZM270.483 213.931H270.733V213.681H270.483V213.931ZM256.873 213.931L256.643 214.03L256.708 214.181H256.873V213.931ZM253.721 206.605L253.546 206.427L253.424 206.547L253.492 206.703L253.721 206.605ZM263.319 197.095L263.495 197.273L263.673 197.096L263.496 196.919L263.319 197.095ZM243.454 177.158L243.631 176.981L243.454 176.803L243.276 176.981L243.454 177.158ZM233.846 186.828L233.736 187.052L233.897 187.132L234.023 187.004L233.846 186.828ZM226.678 183.302H226.428V183.458L226.568 183.527L226.678 183.302ZM226.678 169.178H226.928V168.928H226.678V169.178ZM198.679 183.302V169.178H198.179V183.302H198.679ZM191.19 186.99L198.535 183.528L198.322 183.076L190.976 186.538L191.19 186.99ZM181.214 177.352L190.907 186.941L191.259 186.586L181.565 176.996L181.214 177.352ZM161.694 197.085L181.566 177.351L181.213 176.997L161.341 196.73L161.694 197.085ZM171.319 206.39L161.695 196.731L161.34 197.084L170.965 206.743L171.319 206.39ZM168.396 214L171.373 206.66L170.91 206.472L167.933 213.812L168.396 214ZM154.42 214.156H168.165V213.656H154.42V214.156ZM154.67 242.052V213.906H154.17V242.052H154.67ZM168.165 241.802H154.42V242.302H168.165V241.802ZM171.442 249.226L168.395 241.955L167.934 242.149L170.981 249.419L171.442 249.226ZM161.764 259.192L171.389 249.498L171.034 249.146L161.409 258.84L161.764 259.192ZM181.532 278.746L161.764 258.84L161.409 259.192L181.178 279.099L181.532 278.746ZM190.907 269.086L181.179 278.745L181.531 279.1L191.259 269.441L190.907 269.086ZM198.484 272.079L191.179 269.033L190.987 269.494L198.292 272.541L198.484 272.079ZM198.638 285.881V272.31H198.138V285.881H198.638ZM226.465 285.631H198.388V286.131H226.465V285.631ZM226.215 272.345V285.881H226.715V272.345H226.215ZM233.708 269.067L226.369 272.114L226.561 272.576L233.9 269.529L233.708 269.067ZM243.742 278.709L233.98 269.12L233.629 269.476L243.392 279.066L243.742 278.709ZM263.202 258.908L243.39 278.711L243.744 279.065L263.555 259.262L263.202 258.908ZM253.558 249.618L263.202 259.262L263.555 258.908L253.912 249.265L253.558 249.618ZM256.508 241.931L253.504 249.348L253.967 249.535L256.971 242.119L256.508 241.931ZM270.486 241.911L256.742 241.775L256.737 242.275L270.481 242.411L270.486 241.911ZM270.233 213.931V242.161H270.733V213.931H270.233ZM256.873 214.181H270.483V213.681H256.873V214.181ZM253.492 206.703L256.643 214.03L257.102 213.832L253.951 206.506L253.492 206.703ZM263.143 196.917L253.546 206.427L253.897 206.782L263.495 197.273L263.143 196.917ZM243.277 177.334L263.142 197.271L263.496 196.919L243.631 176.981L243.277 177.334ZM234.023 187.004L243.631 177.334L243.276 176.981L233.669 186.652L234.023 187.004ZM226.568 183.527L233.736 187.052L233.956 186.604L226.788 183.078L226.568 183.527ZM226.428 169.178V183.302H226.928V169.178H226.428ZM198.429 169.428H226.678V168.928H198.429V169.428ZM236.626 227.983C236.626 241.334 225.803 252.157 212.452 252.157V252.657C226.079 252.657 237.126 241.61 237.126 227.983H236.626ZM212.452 203.81C225.803 203.81 236.626 214.633 236.626 227.983H237.126C237.126 214.357 226.079 203.31 212.452 203.31V203.81ZM188.278 227.983C188.278 214.633 199.101 203.81 212.452 203.81V203.31C198.825 203.31 187.778 214.357 187.778 227.983H188.278ZM212.452 252.157C199.101 252.157 188.278 241.334 188.278 227.983H187.778C187.778 241.61 198.825 252.657 212.452 252.657V252.157Z" fill="#4BE6EB"/>
</g>
<defs>
<filter id="filter0_b_9_1361" x="61.7441" y="5.11896" width="163.777" height="62.7531" filterUnits="userSpaceOnUse" color-interpolation-filters="sRGB">
<feFlood flood-opacity="0" result="BackgroundImageFix"/>
<feGaussianBlur in="BackgroundImageFix" stdDeviation="5"/>
<feComposite in2="SourceAlpha" operator="in" result="effect1_backgroundBlur_9_1361"/>
<feBlend mode="normal" in="SourceGraphic" in2="effect1_backgroundBlur_9_1361" result="shape"/>
</filter>
<filter id="filter1_b_9_1361" x="144.17" y="158.928" width="136.563" height="137.203" filterUnits="userSpaceOnUse" color-interpolation-filters="sRGB">
<feFlood flood-opacity="0" result="BackgroundImageFix"/>
<feGaussianBlur in="BackgroundImageFix" stdDeviation="5"/>
<feComposite in2="SourceAlpha" operator="in" result="effect1_backgroundBlur_9_1361"/>
<feBlend mode="normal" in="SourceGraphic" in2="effect1_backgroundBlur_9_1361" result="shape"/>
</filter>
<linearGradient id="paint0_linear_9_1361" x1="212.416" y1="303.835" x2="212.416" y2="156.709" gradientUnits="userSpaceOnUse">
<stop stop-color="#87E5F1"/>
<stop offset="0.414795" stop-color="#87E5F1"/>
<stop offset="1" stop-color="#B5F5F7" stop-opacity="0"/>
</linearGradient>
</defs>
</svg>
