<svg width="300" height="301" viewBox="0 0 300 301" fill="none" xmlns="http://www.w3.org/2000/svg">
<path d="M223.638 71.7913L140.29 105.237L140.29 38.3453L223.638 71.7913Z" fill="#A5FFCD"/>
<rect x="134.303" y="35" width="13.2886" height="150.823" rx="6.64431" fill="#1E73FF"/>
<g filter="url(#filter0_b_8_871)">
<mask id="path-3-inside-1_8_871" fill="white">
<path fill-rule="evenodd" clip-rule="evenodd" d="M154.027 169.433H125.807L106.671 212.571H81.0279L63.113 264.065H219.026L200.858 212.571H175.223L154.027 169.433Z"/>
</mask>
<path fill-rule="evenodd" clip-rule="evenodd" d="M154.027 169.433H125.807L106.671 212.571H81.0279L63.113 264.065H219.026L200.858 212.571H175.223L154.027 169.433Z" fill="url(#paint0_linear_8_871)"/>
<path d="M125.807 169.433V168.933H125.481L125.35 169.23L125.807 169.433ZM154.027 169.433L154.476 169.213L154.338 168.933H154.027V169.433ZM106.671 212.571V213.071H106.996L107.128 212.774L106.671 212.571ZM81.0279 212.571V212.071H80.6724L80.5556 212.407L81.0279 212.571ZM63.113 264.065L62.6408 263.901L62.4097 264.565H63.113V264.065ZM219.026 264.065V264.565H219.732L219.497 263.899L219.026 264.065ZM200.858 212.571L201.329 212.405L201.212 212.071H200.858V212.571ZM175.223 212.571L174.774 212.792L174.911 213.071H175.223V212.571ZM125.807 169.933H154.027V168.933H125.807V169.933ZM107.128 212.774L126.264 169.636L125.35 169.23L106.214 212.369L107.128 212.774ZM81.0279 213.071H106.671V212.071H81.0279V213.071ZM63.5853 264.229L81.5001 212.736L80.5556 212.407L62.6408 263.901L63.5853 264.229ZM219.026 263.565H63.113V264.565H219.026V263.565ZM200.386 212.738L218.554 264.231L219.497 263.899L201.329 212.405L200.386 212.738ZM175.223 213.071H200.858V212.071H175.223V213.071ZM153.578 169.654L174.774 212.792L175.672 212.351L154.476 169.213L153.578 169.654Z" fill="#4BE6EB" mask="url(#path-3-inside-1_8_871)"/>
</g>
<defs>
<filter id="filter0_b_8_871" x="53.113" y="159.433" width="175.913" height="114.632" filterUnits="userSpaceOnUse" color-interpolation-filters="sRGB">
<feFlood flood-opacity="0" result="BackgroundImageFix"/>
<feGaussianBlur in="BackgroundImageFix" stdDeviation="5"/>
<feComposite in2="SourceAlpha" operator="in" result="effect1_backgroundBlur_8_871"/>
<feBlend mode="normal" in="SourceGraphic" in2="effect1_backgroundBlur_8_871" result="shape"/>
</filter>
<linearGradient id="paint0_linear_8_871" x1="141.022" y1="278.624" x2="141.022" y2="159.323" gradientUnits="userSpaceOnUse">
<stop stop-color="#87E5F1"/>
<stop offset="0.414795" stop-color="#87E5F1"/>
<stop offset="1" stop-color="#B5F5F7" stop-opacity="0"/>
</linearGradient>
</defs>
</svg>
