<svg width="300" height="301" viewBox="0 0 300 301" fill="none" xmlns="http://www.w3.org/2000/svg">
<path d="M218.155 133.772C221.214 137.189 221.214 142.361 218.155 145.778L206.873 158.38C205.187 160.264 204.371 162.769 204.624 165.285L206.314 182.082C206.773 186.638 203.737 190.812 199.261 191.78L182.631 195.374C180.165 195.907 178.036 197.45 176.762 199.628L168.204 214.264C165.897 218.209 161.001 219.799 156.817 217.962L141.213 211.111C138.907 210.098 136.282 210.098 133.976 211.111L118.376 217.961C114.192 219.798 109.295 218.209 106.988 214.264L98.4302 199.628C97.1568 197.45 95.0279 195.907 92.5622 195.374L75.9319 191.78C71.4558 190.812 68.4198 186.638 68.8783 182.082L70.5688 165.285C70.8219 162.769 70.0056 160.264 68.3196 158.38L57.0378 145.778C53.9787 142.361 53.9787 137.189 57.0378 133.772L68.3197 121.17C70.0056 119.286 70.8219 116.781 70.5688 114.266L68.8783 97.4651C68.4198 92.9087 71.4558 88.7345 75.9319 87.7671L92.5625 84.1729C95.0281 83.64 97.1569 82.0969 98.4303 79.9194L106.989 65.2851C109.295 61.3408 114.192 59.751 118.375 61.5877L133.977 68.4368C136.283 69.4489 138.907 69.4489 141.212 68.4369L156.818 61.5872C161.001 59.7508 165.897 61.3407 168.204 65.2848L176.762 79.9194C178.036 82.0969 180.165 83.64 182.63 84.1729L199.261 87.7671C203.737 88.7345 206.773 92.9087 206.314 97.4651L204.624 114.266C204.371 116.781 205.187 119.286 206.873 121.17L218.155 133.772Z" fill="#1E73FF"/>
<g filter="url(#filter0_b_3_556)">
<path d="M195.94 179.153C196.983 179.153 197.73 179.153 198.477 179.153C216.649 179.153 234.814 179.153 252.987 179.153C257.936 179.153 259.982 181.206 259.982 186.176C259.982 191.809 259.989 197.443 259.982 203.076C259.982 207.735 257.888 209.837 253.277 209.851C250.263 209.86 248.303 211.27 247.395 214.081C242.349 229.578 237.296 245.076 232.243 260.573C231.075 264.16 229.416 265.37 225.656 265.377C210.649 265.377 195.642 265.391 180.629 265.356C179.385 265.356 178.099 265.163 176.917 264.789C168.097 262.038 159.298 259.197 150.485 256.432C149.517 256.128 148.466 255.976 147.45 255.969C142.1 255.921 136.757 255.955 131.407 255.942C127.391 255.935 125.096 253.668 125.089 249.631C125.068 235.433 125.068 221.228 125.089 207.03C125.089 203.104 127.411 200.83 131.331 200.816C135.989 200.802 140.648 200.775 145.3 200.837C146.413 200.851 147.056 200.471 147.685 199.579C153.685 191.153 159.636 182.692 165.809 174.391C167.876 171.612 168.996 168.729 169.39 165.322C170.323 157.276 171.484 149.257 172.583 141.239C173.288 136.124 177.062 134.14 181.707 136.38C184.14 137.555 186.553 138.758 188.993 139.912C191.018 140.866 192.2 142.4 192.573 144.626C193.624 150.854 194.972 157.048 195.712 163.31C196.216 167.568 195.884 171.916 195.919 176.229C195.926 177.135 195.919 178.04 195.919 179.16L195.94 179.153Z" fill="url(#paint0_linear_3_556)"/>
<path d="M247.157 214.003C247.624 212.559 248.368 211.455 249.4 210.712C250.432 209.97 251.73 209.605 253.276 209.601C255.549 209.594 257.147 209.072 258.181 208.029C259.215 206.986 259.732 205.374 259.732 203.076V203.076C259.737 199.321 259.735 195.565 259.734 191.81C259.733 189.932 259.732 188.054 259.732 186.176C259.732 183.717 259.225 182.043 258.163 180.977C257.102 179.912 255.435 179.403 252.987 179.403H252.88H252.774H252.667H252.561H252.454H252.348H252.241H252.135H252.029H251.922H251.816H251.709H251.603H251.496H251.39H251.283H251.177H251.07H250.964H250.857H250.751H250.644H250.538H250.431H250.325H250.218H250.112H250.005H249.899H249.793H249.686H249.58H249.473H249.367H249.26H249.154H249.047H248.941H248.834H248.728H248.621H248.515H248.408H248.302H248.195H248.089H247.982H247.876H247.77H247.663H247.557H247.45H247.344H247.237H247.131H247.024H246.918H246.811H246.705H246.598H246.492H246.385H246.279H246.172H246.066H245.96H245.853H245.747H245.64H245.534H245.427H245.321H245.214H245.108H245.001H244.895H244.788H244.682H244.575H244.469H244.362H244.256H244.15H244.043H243.937H243.83H243.724H243.617H243.511H243.404H243.298H243.191H243.085H242.978H242.872H242.765H242.659H242.553H242.446H242.34H242.233H242.127H242.02H241.914H241.807H241.701H241.594H241.488H241.381H241.275H241.168H241.062H240.956H240.849H240.743H240.636H240.53H240.423H240.317H240.21H240.104H239.997H239.891H239.784H239.678H239.572H239.465H239.359H239.252H239.146H239.039H238.933H238.826H238.72H238.613H238.507H238.4H238.294H238.187H238.081H237.975H237.868H237.762H237.655H237.549H237.442H237.336H237.229H237.123H237.016H236.91H236.803H236.697H236.591H236.484H236.378H236.271H236.165H236.058H235.952H235.845H235.739H235.632H235.526H235.419H235.313H235.207H235.1H234.994H234.887H234.781H234.674H234.568H234.461H234.355H234.248H234.142H234.035H233.929H233.823H233.716H233.61H233.503H233.397H233.29H233.184H233.077H232.971H232.864H232.758H232.652H232.545H232.439H232.332H232.226H232.119H232.013H231.906H231.8H231.693H231.587H231.48H231.374H231.268H231.161H231.055H230.948H230.842H230.735H230.629H230.522H230.416H230.309H230.203H230.096H229.99H229.884H229.777H229.671H229.564H229.458H229.351H229.245H229.138H229.032H228.925H228.819H228.713H228.606H228.5H228.393H228.287H228.18H228.074H227.967H227.861H227.754H227.648H227.541H227.435H227.329H227.222H227.116H227.009H226.903H226.796H226.69H226.583H226.477H226.37H226.264H226.158H226.051H225.945H225.838H225.732H225.625H225.519H225.412H225.306H225.199H225.093H224.986H224.88H224.774H224.667H224.561H224.454H224.348H224.241H224.135H224.028H223.922H223.815H223.709H223.602H223.496H223.39H223.283H223.177H223.07H222.964H222.857H222.751H222.644H222.538H222.431H222.325H222.219H222.112H222.006H221.899H221.793H221.686H221.58H221.473H221.367H221.26H221.154H221.047H220.941H220.835H220.728H220.622H220.515H220.409H220.302H220.196H220.089H219.983H219.876H219.77H219.664H219.557H219.451H219.344H219.238H219.131H219.025H218.918H218.812H218.705H218.599H218.492H218.386H218.28H218.173H218.067H217.96H217.854H217.747H217.641H217.534H217.428H217.321H217.215H217.108H217.002H216.896H216.789H216.683H216.576H216.47H216.363H216.257H216.15H216.044H215.937H215.831H215.724H215.618H215.512H215.405H215.299H215.192H215.086H214.979H214.873H214.766H214.66H214.553H214.447H214.34H214.234H214.128H214.021H213.915H213.808H213.702H213.595H213.489H213.382H213.276H213.169H213.063H212.956H212.85H212.744H212.637H212.531H212.424H212.318H212.211H212.105H211.998H211.892H211.785H211.679H211.572H211.466H211.359H211.253H211.147H211.04H210.934H210.827H210.721H210.614H210.508H210.401H210.295H210.188H210.082H209.975H209.869H209.763H209.656H209.55H209.443H209.337H209.23H209.124H209.017H208.911H208.804H208.698H208.591H208.485H208.378H208.272H208.166H208.059H207.953H207.846H207.74H207.633H207.527H207.42H207.314H207.207H207.101H206.994H206.888H206.781H206.675H206.569H206.462H206.356H206.249H206.143H206.036H205.93H205.823H205.717H205.61H205.504H205.397H205.291H205.184H205.078H204.971H204.865H204.759H204.652H204.546H204.439H204.333H204.226H204.12H204.013H203.907H203.8H203.694H203.587H203.481H203.374H203.268H203.161H203.055H202.949H202.842H202.736H202.629H202.523H202.416H202.31H202.203H202.097H201.99H201.884H201.777H201.671H201.564H201.458H201.351H201.245H201.138H201.032H200.925H200.819H200.713H200.606H200.5H200.393H200.287H200.18H200.074H199.967H199.861H199.754H199.648H199.541H199.435H199.328H199.222H199.115H199.009H198.902H198.796H198.689H198.583H198.477H198.472H198.468H198.463H198.459H198.455H198.45H198.446H198.442H198.437H198.433H198.428H198.424H198.42H198.415H198.411H198.407H198.402H198.398H198.393H198.389H198.385H198.38H198.376H198.372H198.367H198.363H198.358H198.354H198.35H198.345H198.341H198.336H198.332H198.328H198.323H198.319H198.315H198.31H198.306H198.301H198.297H198.293H198.288H198.284H198.279H198.275H198.271H198.266H198.262H198.258H198.253H198.249H198.244H198.24H198.236H198.231H198.227H198.222H198.218H198.214H198.209H198.205H198.2H198.196H198.192H198.187H198.183H198.178H198.174H198.17H198.165H198.161H198.156H198.152H198.148H198.143H198.139H198.134H198.13H198.125H198.121H198.117H198.112H198.108H198.103H198.099H198.095H198.09H198.086H198.081H198.077H198.072H198.068H198.064H198.059H198.055H198.05H198.046H198.041H198.037H198.032H198.028H198.024H198.019H198.015H198.01H198.006H198.001H197.997H197.992H197.988H197.984H197.979H197.975H197.97H197.966H197.961H197.957H197.952H197.948H197.943H197.939H197.934H197.93H197.925H197.921H197.916H197.912H197.908H197.903H197.899H197.894H197.89H197.885H197.881H197.876H197.872H197.867H197.863H197.858H197.854H197.849H197.845H197.84H197.836H197.831H197.826H197.822H197.817H197.813H197.808H197.804H197.799H197.795H197.79H197.786H197.781H197.777H197.772H197.768H197.763H197.758H197.754H197.749H197.745H197.74H197.736H197.731H197.727H197.722H197.717H197.713H197.708H197.704H197.699H197.695H197.69H197.685H197.681H197.676H197.672H197.667H197.662H197.658H197.653H197.649H197.644H197.639H197.635H197.63H197.626H197.621H197.616H197.612H197.607H197.603H197.598H197.593H197.589H197.584H197.579H197.575H197.57H197.565H197.561H197.556H197.551H197.547H197.542H197.537H197.533H197.528H197.523H197.519H197.514H197.509H197.505H197.5H197.495H197.491H197.486H197.481H197.477H197.472H197.467H197.462H197.458H197.453H197.448H197.444H197.439H197.434H197.429H197.425H197.42H197.415H197.41H197.406H197.401H197.396H197.391H197.387H197.382H197.377H197.372H197.368H197.363H197.358H197.353H197.348H197.344H197.339H197.334H197.329H197.324H197.32H197.315H197.31H197.305H197.3H197.295H197.291H197.286H197.281H197.276H197.271H197.266H197.262H197.257H197.252H197.247H197.242H197.237H197.232H197.228H197.223H197.218H197.213H197.208H197.203H197.198H197.193H197.188H197.184H197.179H197.174H197.169H197.164H197.159H197.154H197.149H197.144H197.139H197.134H197.129H197.124H197.119H197.114H197.109H197.104H197.1H197.095H197.09H197.085H197.08H197.075H197.07H197.065H197.06H197.055H197.05H197.045H197.04H197.034H197.029H197.024H197.019H197.014H197.009H197.004H196.999H196.994H196.989H196.984H196.979H196.974H196.969H196.964H196.959H196.953H196.948H196.943H196.938H196.933H196.928H196.923H196.918H196.913H196.907H196.902H196.897H196.892H196.887H196.882H196.876H196.871H196.866H196.861H196.856H196.851H196.845H196.84H196.835H196.83H196.825H196.819H196.814H196.809H196.804H196.799H196.793H196.788H196.783H196.778H196.772H196.767H196.762H196.756H196.751H196.746H196.741H196.735H196.73H196.725H196.719H196.714H196.709H196.703H196.698H196.693H196.687H196.682H196.677H196.671H196.666H196.661H196.655H196.65H196.645H196.639H196.634H196.628H196.623H196.618H196.612H196.607H196.601H196.596H196.591H196.585H196.58H196.574H196.569H196.563H196.558H196.552H196.547H196.541H196.536H196.53H196.525H196.519H196.514H196.508H196.503H196.497H196.492H196.486H196.481H196.475H196.47H196.464H196.459H196.453H196.448H196.442H196.436H196.431H196.425H196.42H196.414H196.408H196.403H196.397H196.391H196.386H196.38H196.375H196.369H196.363H196.358H196.352H196.346H196.341H196.335H196.329H196.323H196.318H196.312H196.306H196.301H196.295H196.289H196.283H196.278H196.272H196.266H196.26H196.255H196.249H196.243H196.237H196.231H196.226H196.22H196.214H196.208H196.202H196.197H196.191H196.185H196.179H196.173H196.167H196.161H196.156H196.15H196.144H196.138H196.132H196.126H196.12H196.114H196.108H196.102H196.096H196.091H196.085H196.079H196.073H196.067H196.061H196.055H196.049H196.043H196.037H196.031H196.025H196.019H196.013H196.007H196.001H195.994H195.988H195.982H195.98L195.669 179.507V179.16C195.669 178.768 195.67 178.403 195.671 178.055C195.672 177.407 195.673 176.82 195.669 176.231C195.658 174.903 195.682 173.578 195.706 172.257C195.759 169.259 195.812 166.283 195.463 163.34L195.463 163.339C194.968 159.141 194.199 154.98 193.429 150.81C193.051 148.767 192.673 146.721 192.327 144.668L192.327 144.668C191.967 142.524 190.838 141.058 188.886 140.138L188.886 140.138C187.37 139.421 185.862 138.684 184.356 137.947C183.437 137.498 182.518 137.049 181.599 136.605C179.324 135.508 177.306 135.465 175.785 136.272C174.264 137.079 173.176 138.769 172.831 141.273C172.598 142.97 172.363 144.666 172.128 146.363C171.251 152.686 170.373 159.009 169.638 165.35C169.239 168.801 168.103 171.725 166.01 174.54C160.945 181.352 156.029 188.27 151.111 195.192C150.038 196.702 148.964 198.213 147.889 199.723C147.889 199.724 147.889 199.724 147.889 199.724L147.685 199.579C147.056 200.471 146.413 200.851 145.3 200.837L247.157 214.003ZM247.157 214.003C242.126 229.456 237.087 244.909 232.049 260.362L232.005 260.495L232.005 260.495C231.428 262.268 230.743 263.409 229.774 264.116C228.805 264.822 227.513 265.123 225.655 265.127C222.321 265.127 218.986 265.128 215.651 265.128C203.979 265.131 192.306 265.133 180.63 265.106H180.629C179.41 265.106 178.149 264.916 176.992 264.551L176.992 264.551C172.181 263.05 167.38 261.524 162.579 259.998C158.574 258.725 154.57 257.452 150.559 256.194C149.566 255.882 148.491 255.726 147.452 255.719C144.072 255.689 140.694 255.691 137.316 255.694C135.346 255.695 133.377 255.697 131.407 255.692H131.407C129.445 255.688 127.938 255.134 126.921 254.12C125.903 253.107 125.342 251.602 125.339 249.63L247.157 214.003Z" stroke="#4BE6EB" stroke-width="0.5"/>
</g>
<defs>
<filter id="filter0_b_3_556" x="115.073" y="125.468" width="154.912" height="149.912" filterUnits="userSpaceOnUse" color-interpolation-filters="sRGB">
<feFlood flood-opacity="0" result="BackgroundImageFix"/>
<feGaussianBlur in="BackgroundImageFix" stdDeviation="5"/>
<feComposite in2="SourceAlpha" operator="in" result="effect1_backgroundBlur_3_556"/>
<feBlend mode="normal" in="SourceGraphic" in2="effect1_backgroundBlur_3_556" result="shape"/>
</filter>
<linearGradient id="paint0_linear_3_556" x1="192.488" y1="285.366" x2="192.488" y2="121.588" gradientUnits="userSpaceOnUse">
<stop stop-color="#87E5F1"/>
<stop offset="0.414795" stop-color="#87E5F1"/>
<stop offset="1" stop-color="#B5F5F7" stop-opacity="0"/>
</linearGradient>
</defs>
</svg>
