<svg width="300" height="301" viewBox="0 0 300 301" fill="none" xmlns="http://www.w3.org/2000/svg">
<g clip-path="url(#clip0_10_1440)">
<rect x="52.5664" y="45.3772" width="171.955" height="216.358" rx="9" fill="#1E73FF"/>
<rect x="72.3101" y="71.1495" width="33.3122" height="71.2726" fill="#A5FFCD"/>
<rect x="122.874" y="90.517" width="33.3122" height="51.9051" fill="#A5FFCD"/>
<rect x="72.3101" y="160.353" width="83.8758" height="34.2091" fill="#A5FFCD"/>
<rect x="72.3101" y="212.494" width="83.8758" height="23.469" fill="#A5FFCD"/>
<rect x="173.437" y="106.786" width="33.3122" height="35.6363" fill="#A5FFCD"/>
<g filter="url(#filter0_b_10_1440)">
<path fill-rule="evenodd" clip-rule="evenodd" d="M212.604 191.014V204.265L205.713 207.512L196.618 198.516L177.976 217.029L187.005 226.09L184.211 232.976H171.317V259.381H184.212L187.07 266.202L178.041 275.296L196.586 293.972L205.713 284.91L212.566 287.768V300.5H238.906V287.801L245.792 284.943L254.951 293.939L273.537 275.361L264.49 266.314L267.309 259.356L280.202 259.484V233H267.434L264.477 226.126L273.481 217.205L254.845 198.5L245.831 207.573L239.106 204.265V191.014H212.604ZM225.76 279.965C244.417 279.965 259.542 264.84 259.542 246.183C259.542 227.526 244.417 212.401 225.76 212.401C207.103 212.401 191.978 227.526 191.978 246.183C191.978 264.84 207.103 279.965 225.76 279.965Z" fill="url(#paint0_linear_10_1440)"/>
<path d="M212.604 204.265L212.711 204.491L212.854 204.424V204.265H212.604ZM212.604 191.014V190.764H212.354V191.014H212.604ZM205.713 207.512L205.537 207.69L205.661 207.813L205.819 207.739L205.713 207.512ZM196.618 198.516L196.794 198.338L196.618 198.164L196.442 198.338L196.618 198.516ZM177.976 217.029L177.799 216.851L177.622 217.028L177.798 217.205L177.976 217.029ZM187.005 226.09L187.236 226.184L187.299 226.031L187.182 225.914L187.005 226.09ZM184.211 232.976V233.226H184.38L184.443 233.07L184.211 232.976ZM171.317 232.976V232.726H171.067V232.976H171.317ZM171.317 259.381H171.067V259.631H171.317V259.381ZM184.212 259.381L184.442 259.285L184.378 259.131H184.212V259.381ZM187.07 266.202L187.247 266.378L187.365 266.26L187.3 266.105L187.07 266.202ZM178.041 275.296L177.863 275.12L177.688 275.296L177.863 275.472L178.041 275.296ZM196.586 293.972L196.409 294.148L196.585 294.325L196.762 294.149L196.586 293.972ZM205.713 284.91L205.809 284.679L205.655 284.615L205.537 284.733L205.713 284.91ZM212.566 287.768H212.816V287.602L212.662 287.537L212.566 287.768ZM212.566 300.5H212.316V300.75H212.566V300.5ZM238.906 300.5V300.75H239.156V300.5H238.906ZM238.906 287.801L238.811 287.57L238.656 287.634V287.801H238.906ZM245.792 284.943L245.967 284.764L245.849 284.648L245.696 284.712L245.792 284.943ZM254.951 293.939L254.776 294.118L254.953 294.291L255.128 294.116L254.951 293.939ZM273.537 275.361L273.714 275.538L273.891 275.361L273.714 275.184L273.537 275.361ZM264.49 266.314L264.259 266.22L264.196 266.374L264.313 266.491L264.49 266.314ZM267.309 259.356L267.311 259.106L267.141 259.104L267.077 259.262L267.309 259.356ZM280.202 259.484L280.2 259.734L280.452 259.736V259.484H280.202ZM280.202 233H280.452V232.75H280.202V233ZM267.434 233L267.204 233.098L267.269 233.25H267.434V233ZM264.477 226.126L264.301 225.949L264.18 226.069L264.248 226.225L264.477 226.126ZM273.481 217.205L273.657 217.382L273.835 217.206L273.658 217.028L273.481 217.205ZM254.845 198.5L255.022 198.324L254.844 198.146L254.667 198.324L254.845 198.5ZM245.831 207.573L245.721 207.797L245.882 207.876L246.008 207.749L245.831 207.573ZM239.106 204.265H238.856V204.421L238.996 204.489L239.106 204.265ZM239.106 191.014H239.356V190.764H239.106V191.014ZM212.854 204.265V191.014H212.354V204.265H212.854ZM205.819 207.739L212.711 204.491L212.498 204.039L205.606 207.286L205.819 207.739ZM196.443 198.693L205.537 207.69L205.888 207.335L196.794 198.338L196.443 198.693ZM178.152 217.206L196.795 198.693L196.442 198.338L177.799 216.851L178.152 217.206ZM187.182 225.914L178.153 216.852L177.798 217.205L186.828 226.267L187.182 225.914ZM184.443 233.07L187.236 226.184L186.773 225.996L183.98 232.882L184.443 233.07ZM171.317 233.226H184.211V232.726H171.317V233.226ZM171.567 259.381V232.976H171.067V259.381H171.567ZM184.212 259.131H171.317V259.631H184.212V259.131ZM187.3 266.105L184.442 259.285L183.981 259.478L186.839 266.299L187.3 266.105ZM178.218 275.472L187.247 266.378L186.892 266.026L177.863 275.12L178.218 275.472ZM196.764 293.796L178.218 275.12L177.863 275.472L196.409 294.148L196.764 293.796ZM205.537 284.733L196.41 293.794L196.762 294.149L205.889 285.087L205.537 284.733ZM212.662 287.537L205.809 284.679L205.616 285.141L212.47 287.999L212.662 287.537ZM212.816 300.5V287.768H212.316V300.5H212.816ZM238.906 300.25H212.566V300.75H238.906V300.25ZM238.656 287.801V300.5H239.156V287.801H238.656ZM245.696 284.712L238.811 287.57L239.002 288.032L245.888 285.173L245.696 284.712ZM255.126 293.761L245.967 284.764L245.617 285.121L254.776 294.118L255.126 293.761ZM273.36 275.184L254.774 293.762L255.128 294.116L273.714 275.538L273.36 275.184ZM264.313 266.491L273.36 275.538L273.714 275.184L264.667 266.137L264.313 266.491ZM267.077 259.262L264.259 266.22L264.722 266.408L267.54 259.45L267.077 259.262ZM280.205 259.234L267.311 259.106L267.306 259.606L280.2 259.734L280.205 259.234ZM279.952 233V259.484H280.452V233H279.952ZM267.434 233.25H280.202V232.75H267.434V233.25ZM264.248 226.225L267.204 233.098L267.663 232.901L264.707 226.027L264.248 226.225ZM273.305 217.027L264.301 225.949L264.653 226.304L273.657 217.382L273.305 217.027ZM254.668 198.677L273.304 217.381L273.658 217.028L255.022 198.324L254.668 198.677ZM246.008 207.749L255.022 198.677L254.667 198.324L245.654 207.397L246.008 207.749ZM238.996 204.489L245.721 207.797L245.941 207.348L239.217 204.041L238.996 204.489ZM238.856 191.014V204.265H239.356V191.014H238.856ZM212.604 191.264H239.106V190.764H212.604V191.264ZM259.292 246.183C259.292 264.702 244.279 279.715 225.76 279.715V280.215C244.555 280.215 259.792 264.978 259.792 246.183H259.292ZM225.76 212.651C244.279 212.651 259.292 227.664 259.292 246.183H259.792C259.792 227.388 244.555 212.151 225.76 212.151V212.651ZM192.228 246.183C192.228 227.664 207.241 212.651 225.76 212.651V212.151C206.965 212.151 191.728 227.388 191.728 246.183H192.228ZM225.76 279.715C207.241 279.715 192.228 264.702 192.228 246.183H191.728C191.728 264.978 206.965 280.215 225.76 280.215V279.715Z" fill="#4BE6EB"/>
</g>
</g>
<defs>
<filter id="filter0_b_10_1440" x="161.067" y="180.764" width="129.385" height="129.986" filterUnits="userSpaceOnUse" color-interpolation-filters="sRGB">
<feFlood flood-opacity="0" result="BackgroundImageFix"/>
<feGaussianBlur in="BackgroundImageFix" stdDeviation="5"/>
<feComposite in2="SourceAlpha" operator="in" result="effect1_backgroundBlur_10_1440"/>
<feBlend mode="normal" in="SourceGraphic" in2="effect1_backgroundBlur_10_1440" result="shape"/>
</filter>
<linearGradient id="paint0_linear_10_1440" x1="225.727" y1="317.344" x2="225.727" y2="179.317" gradientUnits="userSpaceOnUse">
<stop stop-color="#87E5F1"/>
<stop offset="0.414795" stop-color="#87E5F1"/>
<stop offset="1" stop-color="#B5F5F7" stop-opacity="0"/>
</linearGradient>
<clipPath id="clip0_10_1440">
<rect width="300" height="300" fill="white" transform="translate(0 0.5)"/>
</clipPath>
</defs>
</svg>
