<svg width="300" height="301" viewBox="0 0 300 301" fill="none" xmlns="http://www.w3.org/2000/svg">
<path d="M266.275 246.473C266.365 248.723 264.865 249.163 263.425 249.623C252.995 252.963 242.555 256.293 232.125 259.623C230.385 260.183 228.635 260.713 226.895 261.263C223.455 262.353 222.875 262.063 221.805 258.733C216.355 241.743 210.905 224.753 205.465 207.763C198.205 185.083 190.955 162.393 183.705 139.703C182.725 136.633 183.105 135.893 186.075 134.943C198.325 131.033 210.585 127.113 222.835 123.193C225.935 122.203 226.615 122.513 227.585 125.543C240.315 165.293 253.045 205.053 265.775 244.803C265.975 245.433 266.155 246.073 266.265 246.463L266.275 246.473Z" fill="#1E73FF"/>
<path d="M109.675 194.773C109.675 214.553 109.675 234.333 109.675 254.113C109.675 257.933 109.355 258.253 105.555 258.253C92.9155 258.253 80.2855 258.253 67.6455 258.253C63.9755 258.253 63.5955 257.883 63.5955 254.293C63.5955 214.483 63.5955 174.683 63.5955 134.873C63.5955 131.733 64.0555 131.283 67.2155 131.283C80.1855 131.283 93.1555 131.283 106.115 131.283C109.245 131.283 109.665 131.713 109.665 134.953C109.665 154.903 109.665 174.843 109.665 194.793L109.675 194.773Z" fill="#1E73FF"/>
<path d="M163.465 207.533C163.465 223.153 163.465 238.773 163.465 254.393C163.465 257.823 163.045 258.243 159.555 258.243C146.755 258.243 133.955 258.243 121.155 258.243C117.815 258.243 117.385 257.823 117.385 254.513C117.385 223.103 117.385 191.693 117.385 160.283C117.385 157.143 117.825 156.723 121.035 156.713C133.835 156.713 146.636 156.713 159.436 156.713C163.125 156.713 163.465 157.043 163.465 160.663C163.465 176.283 163.465 191.903 163.465 207.523V207.533Z" fill="#1E73FF"/>
<path d="M163.485 78.2533C163.485 79.4033 163.485 80.5533 163.485 81.7033C163.465 84.7033 162.825 85.3733 159.845 85.3833C151.785 85.4233 143.715 85.4433 135.655 85.4733C130.665 85.4833 125.675 85.4433 120.685 85.5133C118.385 85.5533 117.325 84.6333 117.345 82.2833C117.395 75.8033 117.385 69.3133 117.345 62.8333C117.335 60.7533 118.245 59.7533 120.335 59.7533C133.725 59.7533 147.105 59.7533 160.495 59.7533C162.535 59.7533 163.535 60.7133 163.505 62.8133C163.455 66.2033 163.495 69.5933 163.495 73.1833C176.515 69.0033 189.305 64.8933 202.095 60.7833C206.155 59.4733 206.545 59.6633 207.815 63.6333C210.105 70.8333 212.405 78.0233 214.675 85.2233C215.495 87.8233 215.095 88.6133 212.455 89.4533C199.895 93.4833 187.315 97.4733 174.765 101.543C172.615 102.243 171.505 101.633 170.835 99.5233C168.595 92.4133 166.285 85.3233 163.995 78.2233C163.825 78.2233 163.655 78.2233 163.495 78.2333L163.485 78.2533Z" fill="#1E73FF"/>
<path d="M86.4555 91.7333C79.9655 91.7333 73.4855 91.7433 66.9955 91.7333C64.2155 91.7333 63.6055 91.1133 63.5955 88.3833C63.5855 79.9833 63.5855 71.5933 63.5955 63.1933C63.5955 60.4733 64.2455 59.7833 66.9755 59.7733C80.1155 59.7433 93.2555 59.7733 106.396 59.7533C108.676 59.7533 109.706 60.7133 109.686 63.0633C109.626 71.5433 109.626 80.0233 109.686 88.5033C109.706 90.8633 108.716 91.7833 106.396 91.7633C99.7455 91.7033 93.0955 91.7433 86.4355 91.7433L86.4555 91.7333Z" fill="#1E73FF"/>
<g filter="url(#filter0_b_3_818)">
<rect x="63.5955" y="85.1433" width="46.08" height="55.112" fill="url(#paint0_linear_3_818)"/>
<rect x="63.8455" y="85.3933" width="45.58" height="54.612" stroke="#4BE6EB" stroke-width="0.5"/>
</g>
<g filter="url(#filter1_b_3_818)">
<rect x="117.385" y="80.9932" width="46.08" height="81.6184" fill="url(#paint1_linear_3_818)"/>
<rect x="117.635" y="81.2432" width="45.58" height="81.1184" stroke="#4BE6EB" stroke-width="0.5"/>
</g>
<g filter="url(#filter2_b_3_818)">
<rect x="169.354" y="94.9084" width="46.08" height="49.2793" transform="rotate(-17.5766 169.354 94.9084)" fill="url(#paint2_linear_3_818)"/>
<rect x="169.668" y="95.0713" width="45.58" height="48.7793" transform="rotate(-17.5766 169.668 95.0713)" stroke="#4BE6EB" stroke-width="0.5"/>
</g>
<rect x="117.278" y="204.327" width="46.1874" height="20.4853" fill="#87E6F2"/>
<rect x="63.488" y="171.775" width="46.1874" height="6.90155" fill="#87E6F2"/>
<rect x="63.488" y="182.076" width="46.1874" height="6.90155" fill="#87E6F2"/>
<path d="M240.422 165L196.398 179.924L199.317 188.349L242.854 173.425L240.422 165Z" fill="#87E6F2"/>
<path d="M243.656 175.947L199.941 191.173L200.835 193.15L244.352 178.32L243.656 175.947Z" fill="#87E6F2"/>
<defs>
<filter id="filter0_b_3_818" x="53.5955" y="75.1433" width="66.08" height="75.112" filterUnits="userSpaceOnUse" color-interpolation-filters="sRGB">
<feFlood flood-opacity="0" result="BackgroundImageFix"/>
<feGaussianBlur in="BackgroundImageFix" stdDeviation="5"/>
<feComposite in2="SourceAlpha" operator="in" result="effect1_backgroundBlur_3_818"/>
<feBlend mode="normal" in="SourceGraphic" in2="effect1_backgroundBlur_3_818" result="shape"/>
</filter>
<filter id="filter1_b_3_818" x="107.385" y="70.9932" width="66.08" height="101.618" filterUnits="userSpaceOnUse" color-interpolation-filters="sRGB">
<feFlood flood-opacity="0" result="BackgroundImageFix"/>
<feGaussianBlur in="BackgroundImageFix" stdDeviation="5"/>
<feComposite in2="SourceAlpha" operator="in" result="effect1_backgroundBlur_3_818"/>
<feBlend mode="normal" in="SourceGraphic" in2="effect1_backgroundBlur_3_818" result="shape"/>
</filter>
<filter id="filter2_b_3_818" x="159.354" y="70.9932" width="78.81" height="80.8939" filterUnits="userSpaceOnUse" color-interpolation-filters="sRGB">
<feFlood flood-opacity="0" result="BackgroundImageFix"/>
<feGaussianBlur in="BackgroundImageFix" stdDeviation="5"/>
<feComposite in2="SourceAlpha" operator="in" result="effect1_backgroundBlur_3_818"/>
<feBlend mode="normal" in="SourceGraphic" in2="effect1_backgroundBlur_3_818" result="shape"/>
</filter>
<linearGradient id="paint0_linear_3_818" x1="86.6213" y1="148.734" x2="86.6358" y2="78.8575" gradientUnits="userSpaceOnUse">
<stop stop-color="#87E5F1"/>
<stop offset="0.291667" stop-color="#87E5F1"/>
<stop offset="1" stop-color="#B5F5F7" stop-opacity="0"/>
</linearGradient>
<linearGradient id="paint1_linear_3_818" x1="140.411" y1="175.168" x2="140.443" y2="71.6842" gradientUnits="userSpaceOnUse">
<stop stop-color="#87E5F1"/>
<stop offset="0.291667" stop-color="#87E5F1"/>
<stop offset="1" stop-color="#B5F5F7" stop-opacity="0"/>
</linearGradient>
<linearGradient id="paint2_linear_3_818" x1="192.38" y1="151.769" x2="192.392" y2="89.2879" gradientUnits="userSpaceOnUse">
<stop stop-color="#87E5F1"/>
<stop offset="0.291667" stop-color="#87E5F1"/>
<stop offset="1" stop-color="#B5F5F7" stop-opacity="0"/>
</linearGradient>
</defs>
</svg>
