<svg width="300" height="301" viewBox="0 0 300 301" fill="none" xmlns="http://www.w3.org/2000/svg">
<rect x="65.4613" y="65.7126" width="140.535" height="134.689" fill="#A5FFCD"/>
<path fill-rule="evenodd" clip-rule="evenodd" d="M56.2563 47.7284C51.2858 47.7284 47.2563 51.7578 47.2563 56.7283V204.906C47.2563 209.876 51.2858 213.906 56.2563 213.906H211.292C216.262 213.906 220.292 209.876 220.292 204.906V56.7284C220.292 51.7578 216.262 47.7284 211.292 47.7284H56.2563ZM117.157 111.825V74.3696H149.865V111.825H191.013V146.644H149.865V187.265H117.157V146.644H76.5354V111.825H117.157Z" fill="#1E73FF"/>
<g filter="url(#filter0_b_9_1186)">
<path fill-rule="evenodd" clip-rule="evenodd" d="M201.241 148.244V163.088L193.521 166.726L183.333 156.648L162.449 177.387L172.564 187.538L169.435 195.251H154.99V224.831H169.435L172.637 232.472L162.522 242.659L183.297 263.58L193.521 253.429L201.198 256.631V270.893H230.705V256.667L238.419 253.465L248.679 263.544L269.5 242.732L259.365 232.597L262.522 224.803L276.966 224.946V195.277H262.662L259.351 187.578L269.437 177.584L248.56 156.631L238.463 166.794L230.929 163.088V148.244H201.241ZM215.979 247.889C236.879 247.889 253.822 230.946 253.822 210.046C253.822 189.146 236.879 172.203 215.979 172.203C195.078 172.203 178.135 189.146 178.135 210.046C178.135 230.946 195.078 247.889 215.979 247.889Z" fill="url(#paint0_linear_9_1186)"/>
<path d="M201.241 163.088L201.347 163.315L201.491 163.247V163.088H201.241ZM201.241 148.244V147.994H200.991V148.244H201.241ZM193.521 166.726L193.345 166.904L193.469 167.027L193.628 166.952L193.521 166.726ZM183.333 156.648L183.509 156.47L183.333 156.296L183.157 156.47L183.333 156.648ZM162.449 177.387L162.273 177.209L162.095 177.386L162.272 177.563L162.449 177.387ZM172.564 187.538L172.795 187.632L172.858 187.478L172.741 187.361L172.564 187.538ZM169.435 195.251V195.501H169.603L169.666 195.345L169.435 195.251ZM154.99 195.251V195.001H154.74V195.251H154.99ZM154.99 224.831H154.74V225.081H154.99V224.831ZM169.435 224.831L169.665 224.735L169.601 224.581H169.435V224.831ZM172.637 232.472L172.814 232.648L172.932 232.529L172.867 232.375L172.637 232.472ZM162.522 242.659L162.345 242.483L162.17 242.659L162.345 242.835L162.522 242.659ZM183.297 263.58L183.12 263.756L183.296 263.934L183.473 263.757L183.297 263.58ZM193.521 253.429L193.617 253.198L193.463 253.134L193.345 253.252L193.521 253.429ZM201.198 256.631H201.448V256.464L201.294 256.4L201.198 256.631ZM201.198 270.893H200.948V271.143H201.198V270.893ZM230.705 270.893V271.143H230.955V270.893H230.705ZM230.705 256.667L230.61 256.436L230.455 256.5V256.667H230.705ZM238.419 253.465L238.594 253.287L238.476 253.171L238.323 253.234L238.419 253.465ZM248.679 263.544L248.504 263.722L248.681 263.896L248.856 263.72L248.679 263.544ZM269.5 242.732L269.677 242.909L269.853 242.732L269.677 242.555L269.5 242.732ZM259.365 232.597L259.133 232.503L259.071 232.657L259.188 232.774L259.365 232.597ZM262.522 224.803L262.525 224.553L262.355 224.551L262.291 224.709L262.522 224.803ZM276.966 224.946L276.964 225.196L277.216 225.198V224.946H276.966ZM276.966 195.277H277.216V195.027H276.966V195.277ZM262.662 195.277L262.433 195.376L262.498 195.527H262.662V195.277ZM259.351 187.578L259.175 187.4L259.054 187.52L259.121 187.677L259.351 187.578ZM269.437 177.584L269.613 177.761L269.791 177.585L269.614 177.407L269.437 177.584ZM248.56 156.631L248.737 156.454L248.56 156.276L248.383 156.454L248.56 156.631ZM238.463 166.794L238.352 167.018L238.513 167.097L238.64 166.97L238.463 166.794ZM230.929 163.088H230.679V163.244L230.819 163.313L230.929 163.088ZM230.929 148.244H231.179V147.994H230.929V148.244ZM201.491 163.088V148.244H200.991V163.088H201.491ZM193.628 166.952L201.347 163.315L201.134 162.862L193.414 166.5L193.628 166.952ZM183.158 156.826L193.345 166.904L193.697 166.548L183.509 156.47L183.158 156.826ZM162.625 177.564L183.51 156.825L183.157 156.47L162.273 177.209L162.625 177.564ZM172.741 187.361L162.626 177.21L162.272 177.563L172.387 187.714L172.741 187.361ZM169.666 195.345L172.795 187.632L172.332 187.444L169.203 195.157L169.666 195.345ZM154.99 195.501H169.435V195.001H154.99V195.501ZM155.24 224.831V195.251H154.74V224.831H155.24ZM169.435 224.581H154.99V225.081H169.435V224.581ZM172.867 232.375L169.665 224.735L169.204 224.928L172.406 232.568L172.867 232.375ZM162.699 242.835L172.814 232.648L172.459 232.296L162.345 242.483L162.699 242.835ZM183.475 263.404L162.699 242.483L162.345 242.835L183.12 263.756L183.475 263.404ZM193.345 253.252L183.121 263.403L183.473 263.757L193.697 253.606L193.345 253.252ZM201.294 256.4L193.617 253.198L193.425 253.66L201.102 256.861L201.294 256.4ZM201.448 270.893V256.631H200.948V270.893H201.448ZM230.705 270.643H201.198V271.143H230.705V270.643ZM230.455 256.667V270.893H230.955V256.667H230.455ZM238.323 253.234L230.61 256.436L230.801 256.898L238.515 253.696L238.323 253.234ZM248.854 263.365L238.594 253.287L238.244 253.644L248.504 263.722L248.854 263.365ZM269.323 242.555L248.502 263.367L248.856 263.72L269.677 242.909L269.323 242.555ZM259.188 232.774L269.323 242.909L269.677 242.555L259.542 232.42L259.188 232.774ZM262.291 224.709L259.133 232.503L259.597 232.691L262.754 224.897L262.291 224.709ZM276.969 224.696L262.525 224.553L262.52 225.053L276.964 225.196L276.969 224.696ZM276.716 195.277V224.946H277.216V195.277H276.716ZM262.662 195.527H276.966V195.027H262.662V195.527ZM259.121 187.677L262.433 195.376L262.892 195.179L259.58 187.479L259.121 187.677ZM269.261 177.406L259.175 187.4L259.527 187.755L269.613 177.761L269.261 177.406ZM248.383 156.807L269.26 177.76L269.614 177.407L248.737 156.454L248.383 156.807ZM238.64 166.97L248.737 156.807L248.383 156.454L238.285 166.618L238.64 166.97ZM230.819 163.313L238.352 167.018L238.573 166.569L231.04 162.864L230.819 163.313ZM230.679 148.244V163.088H231.179V148.244H230.679ZM201.241 148.494H230.929V147.994H201.241V148.494ZM253.572 210.046C253.572 230.808 236.741 247.639 215.979 247.639V248.139C237.017 248.139 254.072 231.084 254.072 210.046H253.572ZM215.979 172.453C236.741 172.453 253.572 189.284 253.572 210.046H254.072C254.072 189.008 237.017 171.953 215.979 171.953V172.453ZM178.385 210.046C178.385 189.284 195.216 172.453 215.979 172.453V171.953C194.94 171.953 177.885 189.008 177.885 210.046H178.385ZM215.979 247.639C195.216 247.639 178.385 230.808 178.385 210.046H177.885C177.885 231.084 194.94 248.139 215.979 248.139V247.639Z" fill="#4BE6EB"/>
</g>
<defs>
<filter id="filter0_b_9_1186" x="144.74" y="137.994" width="142.476" height="143.149" filterUnits="userSpaceOnUse" color-interpolation-filters="sRGB">
<feFlood flood-opacity="0" result="BackgroundImageFix"/>
<feGaussianBlur in="BackgroundImageFix" stdDeviation="5"/>
<feComposite in2="SourceAlpha" operator="in" result="effect1_backgroundBlur_9_1186"/>
<feBlend mode="normal" in="SourceGraphic" in2="effect1_backgroundBlur_9_1186" result="shape"/>
</filter>
<linearGradient id="paint0_linear_9_1186" x1="215.941" y1="289.762" x2="215.941" y2="135.141" gradientUnits="userSpaceOnUse">
<stop stop-color="#87E5F1"/>
<stop offset="0.414795" stop-color="#87E5F1"/>
<stop offset="1" stop-color="#B5F5F7" stop-opacity="0"/>
</linearGradient>
</defs>
</svg>
