<svg width="300" height="301" viewBox="0 0 300 301" fill="none" xmlns="http://www.w3.org/2000/svg">
<path d="M39.1916 231.65C34.555 231.65 30.9798 227.651 31.4044 223.036C35.7505 176.436 74.955 139.957 122.695 139.957C170.436 139.957 209.64 176.436 213.986 223.036C214.411 227.651 210.836 231.65 206.199 231.65H39.1916Z" fill="#1E73FF"/>
<circle cx="122.696" cy="110.283" r="59.0912" fill="#A5FFCD"/>
<g filter="url(#filter0_b_9_1379)">
<mask id="path-3-inside-1_9_1379" fill="white">
<path fill-rule="evenodd" clip-rule="evenodd" d="M217.486 195.834C217.721 194.532 217.843 193.191 217.843 191.821C217.843 179.424 207.793 169.375 195.396 169.375C182.999 169.375 172.95 179.424 172.95 191.821C172.95 194.719 173.499 197.489 174.498 200.032L144.225 221.89C140.341 218.674 135.355 216.741 129.919 216.741C117.522 216.741 107.472 226.791 107.472 239.188C107.472 251.585 117.522 261.635 129.919 261.635C142.316 261.635 152.366 251.585 152.366 239.188C152.366 236.577 151.92 234.071 151.1 231.74L181.726 209.627C185.512 212.538 190.252 214.268 195.396 214.268C202.044 214.268 208.017 211.379 212.127 206.787L238.327 225.822C237.45 228.224 236.972 230.816 236.972 233.521C236.972 245.918 247.022 255.968 259.419 255.968C271.816 255.968 281.866 245.918 281.866 233.521C281.866 221.124 271.816 211.074 259.419 211.074C254.077 211.074 249.171 212.94 245.317 216.055L217.486 195.834Z"/>
</mask>
<path fill-rule="evenodd" clip-rule="evenodd" d="M217.486 195.834C217.721 194.532 217.843 193.191 217.843 191.821C217.843 179.424 207.793 169.375 195.396 169.375C182.999 169.375 172.95 179.424 172.95 191.821C172.95 194.719 173.499 197.489 174.498 200.032L144.225 221.89C140.341 218.674 135.355 216.741 129.919 216.741C117.522 216.741 107.472 226.791 107.472 239.188C107.472 251.585 117.522 261.635 129.919 261.635C142.316 261.635 152.366 251.585 152.366 239.188C152.366 236.577 151.92 234.071 151.1 231.74L181.726 209.627C185.512 212.538 190.252 214.268 195.396 214.268C202.044 214.268 208.017 211.379 212.127 206.787L238.327 225.822C237.45 228.224 236.972 230.816 236.972 233.521C236.972 245.918 247.022 255.968 259.419 255.968C271.816 255.968 281.866 245.918 281.866 233.521C281.866 221.124 271.816 211.074 259.419 211.074C254.077 211.074 249.171 212.94 245.317 216.055L217.486 195.834Z" fill="url(#paint0_linear_9_1379)"/>
<path d="M217.486 195.834L216.994 195.745L216.938 196.054L217.192 196.239L217.486 195.834ZM174.498 200.032L174.791 200.437L175.106 200.21L174.964 199.849L174.498 200.032ZM144.225 221.89L143.906 222.275L144.204 222.522L144.517 222.295L144.225 221.89ZM151.1 231.74L150.808 231.335L150.505 231.553L150.629 231.906L151.1 231.74ZM181.726 209.627L182.031 209.231L181.736 209.004L181.434 209.222L181.726 209.627ZM212.127 206.787L212.421 206.382L212.055 206.117L211.754 206.453L212.127 206.787ZM238.327 225.822L238.797 225.994L238.926 225.64L238.621 225.418L238.327 225.822ZM245.317 216.055L245.024 216.46L245.334 216.685L245.632 216.444L245.317 216.055ZM217.343 191.821C217.343 193.161 217.223 194.473 216.994 195.745L217.978 195.923C218.218 194.592 218.343 193.221 218.343 191.821H217.343ZM195.396 169.875C207.517 169.875 217.343 179.701 217.343 191.821H218.343C218.343 179.148 208.07 168.875 195.396 168.875V169.875ZM173.45 191.821C173.45 179.701 183.276 169.875 195.396 169.875V168.875C182.723 168.875 172.45 179.148 172.45 191.821H173.45ZM174.964 199.849C173.987 197.363 173.45 194.656 173.45 191.821H172.45C172.45 194.783 173.011 197.614 174.033 200.214L174.964 199.849ZM144.517 222.295L174.791 200.437L174.206 199.626L143.932 221.485L144.517 222.295ZM129.919 217.241C135.235 217.241 140.108 219.131 143.906 222.275L144.544 221.505C140.573 218.218 135.476 216.241 129.919 216.241V217.241ZM107.972 239.188C107.972 227.067 117.798 217.241 129.919 217.241V216.241C117.246 216.241 106.972 226.515 106.972 239.188H107.972ZM129.919 261.135C117.798 261.135 107.972 251.309 107.972 239.188H106.972C106.972 251.861 117.246 262.135 129.919 262.135V261.135ZM151.866 239.188C151.866 251.309 142.04 261.135 129.919 261.135V262.135C142.592 262.135 152.866 251.861 152.866 239.188H151.866ZM150.629 231.906C151.43 234.184 151.866 236.635 151.866 239.188H152.866C152.866 236.52 152.41 233.957 151.572 231.574L150.629 231.906ZM181.434 209.222L150.808 231.335L151.393 232.145L182.019 210.032L181.434 209.222ZM195.396 213.768C190.366 213.768 185.732 212.077 182.031 209.231L181.421 210.023C185.291 212.999 190.138 214.768 195.396 214.768V213.768ZM211.754 206.453C207.735 210.944 201.896 213.768 195.396 213.768V214.768C202.192 214.768 208.298 211.814 212.499 207.12L211.754 206.453ZM238.621 225.418L212.421 206.382L211.833 207.191L238.033 226.227L238.621 225.418ZM237.857 225.651C236.961 228.106 236.472 230.757 236.472 233.521H237.472C237.472 230.876 237.94 228.341 238.797 225.994L237.857 225.651ZM236.472 233.521C236.472 246.194 246.745 256.468 259.419 256.468V255.468C247.298 255.468 237.472 245.642 237.472 233.521H236.472ZM259.419 256.468C272.092 256.468 282.366 246.194 282.366 233.521H281.366C281.366 245.642 271.54 255.468 259.419 255.468V256.468ZM282.366 233.521C282.366 220.848 272.092 210.574 259.419 210.574V211.574C271.54 211.574 281.366 221.4 281.366 233.521H282.366ZM259.419 210.574C253.959 210.574 248.943 212.482 245.003 215.666L245.632 216.444C249.4 213.398 254.196 211.574 259.419 211.574V210.574ZM217.192 196.239L245.024 216.46L245.611 215.651L217.78 195.43L217.192 196.239Z" fill="#4BE6EB" mask="url(#path-3-inside-1_9_1379)"/>
</g>
<defs>
<filter id="filter0_b_9_1379" x="97.4719" y="159.375" width="194.394" height="112.261" filterUnits="userSpaceOnUse" color-interpolation-filters="sRGB">
<feFlood flood-opacity="0" result="BackgroundImageFix"/>
<feGaussianBlur in="BackgroundImageFix" stdDeviation="5"/>
<feComposite in2="SourceAlpha" operator="in" result="effect1_backgroundBlur_9_1379"/>
<feBlend mode="normal" in="SourceGraphic" in2="effect1_backgroundBlur_9_1379" result="shape"/>
</filter>
<linearGradient id="paint0_linear_9_1379" x1="194.615" y1="275.829" x2="194.615" y2="159.518" gradientUnits="userSpaceOnUse">
<stop stop-color="#87E5F1"/>
<stop offset="0.414795" stop-color="#87E5F1"/>
<stop offset="1" stop-color="#B5F5F7" stop-opacity="0"/>
</linearGradient>
</defs>
</svg>
