<svg width="1539" height="655" viewBox="0 0 1539 655" fill="none" xmlns="http://www.w3.org/2000/svg">
<path d="M516.571 443.252C514.734 433.173 512.869 423.243 511.167 413.3C510.775 410.976 510.005 409.612 507.56 408.815C503.52 407.491 499.616 405.734 495.766 403.924C494.023 403.1 492.807 403.167 491.213 404.289C483.607 409.666 475.906 414.908 468.219 420.19C467.314 420.812 466.368 421.392 465.652 421.865C453.614 409.787 441.753 397.871 429.553 385.631C431.107 383.389 432.903 380.727 434.741 378.093C438.848 372.189 442.874 366.244 447.116 360.449C448.453 358.625 448.426 357.26 447.454 355.301C445.616 351.6 443.928 347.776 442.617 343.845C441.861 341.575 440.672 340.71 438.429 340.332C428.378 338.616 418.34 336.725 408.167 334.888V283.779C418.299 281.942 428.324 280.05 438.375 278.334C440.604 277.956 441.834 277.159 442.59 274.862C443.874 270.931 445.454 267.054 447.373 263.392C448.521 261.204 448.129 259.799 446.846 257.975C440.955 249.639 435.187 241.236 429.58 233.157C441.725 221.011 453.682 209.041 465.881 196.855C473.92 202.394 482.377 208.096 490.686 214C492.685 215.418 494.199 215.594 496.414 214.472C500.008 212.662 503.764 211.108 507.587 209.838C509.83 209.095 510.748 207.947 511.14 205.677C512.842 195.612 514.72 185.574 516.571 175.374H567.72C569.544 185.412 571.449 195.41 573.138 205.461C573.543 207.866 574.475 209.082 576.853 209.852C580.676 211.095 584.432 212.676 588.026 214.486C590.106 215.526 591.538 215.472 593.457 214.121C601.779 208.217 610.236 202.476 618.329 196.896C630.434 209.001 642.404 220.957 654.63 233.184C649.159 241.155 643.471 249.612 637.554 257.894C636.014 260.042 635.987 261.636 637.148 263.919C638.918 267.405 640.404 271.08 641.607 274.795C642.336 277.078 643.539 277.929 645.795 278.307C655.86 280.01 665.898 281.874 676.111 283.711V334.901C667.56 336.482 659.021 338.481 650.388 339.508C644.687 340.184 641.066 342.169 640.067 348.06C639.85 349.357 639.297 350.708 638.526 351.762C635.176 356.342 636.5 360.03 639.729 364.204C645.079 371.122 649.807 378.512 654.536 385.321C642.444 397.412 630.488 409.368 618.194 421.663C611.736 417.218 604.387 412.651 597.645 407.342C593.065 403.735 589.039 402.357 584.027 406.045C582.798 406.95 581.19 407.545 579.677 407.774C574.529 408.558 573.138 411.868 572.476 416.542C571.219 425.418 569.382 434.213 567.761 443.252H516.585H516.571ZM542.159 251.949C510.33 251.949 484.782 277.483 484.769 309.327C484.755 341.129 510.33 366.717 542.146 366.717C573.962 366.717 599.536 341.143 599.536 309.327C599.536 277.497 573.989 251.949 542.159 251.949Z" fill="#87E6F2"/>
<path d="M715.428 255.716C714.126 248.574 712.805 241.538 711.599 234.493C711.321 232.846 710.775 231.88 709.043 231.315C706.18 230.377 703.414 229.132 700.686 227.849C699.451 227.265 698.589 227.313 697.46 228.108C692.07 231.918 686.614 235.632 681.167 239.375C680.525 239.815 679.855 240.227 679.348 240.562C670.819 232.004 662.414 223.561 653.769 214.888C654.87 213.299 656.143 211.413 657.445 209.546C660.355 205.363 663.208 201.151 666.214 197.044C667.162 195.752 667.143 194.785 666.453 193.397C665.151 190.774 663.955 188.065 663.026 185.279C662.49 183.671 661.648 183.058 660.059 182.79C652.937 181.575 645.824 180.234 638.616 178.933V142.719C645.795 141.417 652.898 140.077 660.02 138.861C661.6 138.593 662.471 138.028 663.007 136.401C663.917 133.615 665.037 130.868 666.396 128.273C667.21 126.723 666.932 125.727 666.023 124.435C661.849 118.528 657.761 112.574 653.789 106.85C662.394 98.2437 670.866 89.7622 679.511 81.1276C685.206 85.0524 691.199 89.0921 697.086 93.2754C698.503 94.2806 699.575 94.405 701.145 93.6105C703.691 92.3277 706.353 91.2269 709.062 90.327C710.651 89.8005 711.302 88.9868 711.579 87.3786C712.786 80.2469 714.116 73.1343 715.428 65.9069H751.67C752.962 73.0195 754.312 80.1033 755.509 87.2254C755.796 88.9294 756.456 89.7909 758.141 90.3366C760.85 91.2173 763.512 92.3373 766.058 93.6201C767.532 94.3572 768.547 94.3189 769.906 93.3616C775.803 89.1783 781.796 85.1099 787.53 81.1563C796.107 89.7335 804.588 98.2054 813.252 106.869C809.375 112.517 805.345 118.509 801.152 124.377C800.06 125.899 800.041 127.029 800.865 128.647C802.119 131.117 803.172 133.72 804.024 136.353C804.541 137.971 805.392 138.574 806.991 138.842C814.123 140.048 821.235 141.369 828.472 142.671V178.942C822.413 180.062 816.363 181.479 810.246 182.206C806.206 182.685 803.641 184.092 802.932 188.266C802.779 189.185 802.387 190.142 801.841 190.889C799.467 194.134 800.405 196.747 802.693 199.705C806.484 204.607 809.834 209.843 813.185 214.668C804.617 223.235 796.145 231.707 787.434 240.418C782.858 237.269 777.651 234.033 772.874 230.271C769.629 227.715 766.776 226.739 763.224 229.352C762.353 229.994 761.214 230.415 760.142 230.578C756.495 231.133 755.509 233.478 755.04 236.79C754.149 243.08 752.848 249.312 751.699 255.716H715.437H715.428ZM733.558 120.165C711.005 120.165 692.903 138.258 692.893 160.821C692.884 183.355 711.005 201.486 733.549 201.486C756.093 201.486 774.214 183.365 774.214 160.821C774.214 138.267 756.112 120.165 733.558 120.165Z" fill="#1E73FF"/>
<path d="M735.554 483.515C734.484 477.645 733.398 471.862 732.407 466.071C732.179 464.717 731.73 463.923 730.306 463.458C727.953 462.687 725.679 461.664 723.437 460.61C722.422 460.13 721.714 460.169 720.785 460.822C716.355 463.954 711.87 467.007 707.393 470.084C706.866 470.445 706.315 470.784 705.898 471.059C698.887 464.025 691.979 457.085 684.874 449.956C685.779 448.65 686.825 447.1 687.895 445.566C690.287 442.127 692.632 438.665 695.103 435.289C695.882 434.227 695.866 433.432 695.299 432.292C694.229 430.136 693.246 427.909 692.482 425.619C692.042 424.297 691.349 423.794 690.043 423.573C684.189 422.574 678.343 421.472 672.418 420.402V390.636C678.319 389.566 684.158 388.464 690.012 387.465C691.31 387.245 692.026 386.781 692.467 385.443C693.214 383.153 694.135 380.895 695.252 378.763C695.921 377.488 695.693 376.67 694.945 375.607C691.515 370.753 688.155 365.859 684.889 361.153C691.963 354.08 698.927 347.108 706.032 340.011C710.714 343.237 715.639 346.557 720.478 349.996C721.643 350.822 722.524 350.924 723.814 350.271C725.907 349.217 728.095 348.312 730.322 347.572C731.628 347.14 732.163 346.471 732.391 345.149C733.382 339.287 734.476 333.441 735.554 327.5H765.344C766.406 333.346 767.516 339.169 768.499 345.023C768.735 346.424 769.278 347.132 770.663 347.58C772.89 348.304 775.077 349.225 777.17 350.279C778.382 350.885 779.216 350.853 780.333 350.067C785.18 346.628 790.106 343.284 794.819 340.034C801.869 347.084 808.841 354.048 815.961 361.169C812.775 365.811 809.462 370.737 806.016 375.56C805.119 376.811 805.103 377.74 805.78 379.07C806.811 381.1 807.676 383.24 808.376 385.404C808.801 386.733 809.502 387.229 810.816 387.449C816.678 388.441 822.524 389.527 828.472 390.597V420.41C823.492 421.331 818.519 422.495 813.491 423.093C810.17 423.487 808.062 424.643 807.479 428.074C807.353 428.829 807.031 429.616 806.582 430.23C804.631 432.897 805.402 435.045 807.283 437.477C810.398 441.505 813.152 445.809 815.906 449.775C808.864 456.817 801.901 463.781 794.74 470.941C790.979 468.352 786.699 465.693 782.772 462.601C780.105 460.5 777.76 459.697 774.841 461.845C774.125 462.372 773.189 462.719 772.308 462.852C769.31 463.309 768.499 465.237 768.114 467.959C767.382 473.129 766.312 478.251 765.368 483.515H735.562H735.554ZM750.457 372.098C731.919 372.098 717.04 386.969 717.032 405.515C717.024 424.038 731.919 438.94 750.449 438.94C768.979 438.94 783.874 424.045 783.874 405.515C783.874 386.977 768.995 372.098 750.457 372.098Z" fill="#AAF3F6"/>
<path d="M908.352 403.391C906.788 394.812 905.201 386.36 903.752 377.896C903.419 375.918 902.763 374.757 900.682 374.078C897.243 372.951 893.92 371.456 890.642 369.915C889.159 369.214 888.124 369.271 886.767 370.226C880.293 374.803 873.738 379.264 867.194 383.761C866.424 384.29 865.619 384.784 865.009 385.187C854.763 374.906 844.666 364.763 834.282 354.345C835.605 352.436 837.134 350.17 838.698 347.928C842.194 342.902 845.621 337.842 849.232 332.909C850.37 331.357 850.347 330.195 849.519 328.528C847.955 325.377 846.518 322.122 845.402 318.776C844.758 316.844 843.746 316.108 841.838 315.786C833.282 314.325 824.737 312.716 816.078 311.152V267.648C824.703 266.084 833.236 264.474 841.792 263.014C843.689 262.692 844.735 262.013 845.379 260.058C846.472 256.712 847.817 253.411 849.45 250.295C850.428 248.432 850.094 247.236 849.002 245.684C843.988 238.588 839.078 231.435 834.305 224.559C844.643 214.22 854.821 204.032 865.205 193.659C872.047 198.374 879.246 203.227 886.318 208.252C888.02 209.46 889.308 209.609 891.194 208.655C894.253 207.114 897.45 205.791 900.705 204.71C902.614 204.078 903.396 203.1 903.729 201.168C905.178 192.601 906.776 184.057 908.352 175.374H951.89C953.442 183.919 955.064 192.428 956.501 200.984C956.846 203.031 957.64 204.066 959.664 204.722C962.918 205.78 966.115 207.125 969.174 208.666C970.945 209.552 972.164 209.506 973.797 208.356C980.881 203.33 988.079 198.443 994.968 193.693C1005.27 203.997 1015.46 214.174 1025.87 224.582C1021.21 231.366 1016.37 238.565 1011.33 245.615C1010.02 247.443 1010 248.8 1010.99 250.744C1012.49 253.71 1013.76 256.838 1014.78 260.001C1015.4 261.944 1016.43 262.669 1018.35 262.991C1026.91 264.44 1035.46 266.027 1044.15 267.591V311.163C1036.87 312.509 1029.6 314.21 1022.26 315.084C1017.4 315.659 1014.32 317.35 1013.47 322.364C1013.29 323.468 1012.82 324.618 1012.16 325.515C1009.31 329.413 1010.43 332.553 1013.18 336.106C1017.74 341.994 1021.76 348.284 1025.79 354.08C1015.49 364.372 1005.32 374.55 994.853 385.014C989.356 381.231 983.1 377.344 977.362 372.825C973.463 369.754 970.036 368.581 965.77 371.721C964.724 372.491 963.355 372.997 962.067 373.193C957.686 373.86 956.501 376.677 955.938 380.656C954.868 388.211 953.304 395.698 951.924 403.391H908.363H908.352ZM930.132 240.555C903.039 240.555 881.293 262.289 881.282 289.394C881.27 316.464 903.039 338.245 930.121 338.245C957.203 338.245 978.972 316.476 978.972 289.394C978.972 262.301 957.226 240.555 930.132 240.555Z" fill="#1957A0"/>
<path d="M168.539 143.372H277.886C278.027 144.097 277.483 144.512 277.168 144.995C262.277 168.224 247.38 191.452 232.455 214.66C231.765 215.734 231.422 216.787 231.422 218.075C231.456 235.42 231.429 252.773 231.469 270.119C231.469 271.373 231.1 272.144 230.101 272.902C225.822 276.115 221.609 279.422 217.37 282.695C216.901 283.058 216.411 283.413 215.908 283.789C215.452 283.044 215.633 282.36 215.633 281.716C215.619 260.52 215.613 239.318 215.646 218.122C215.646 216.834 215.324 215.781 214.62 214.701C199.649 191.593 184.704 168.459 169.76 145.331C169.397 144.774 169.049 144.204 168.525 143.372H168.539Z" fill="#1E73FF"/>
<path d="M1257.45 427.083H1366.8C1366.94 427.808 1366.39 428.224 1366.08 428.707C1351.19 451.935 1336.29 475.163 1321.37 498.372C1320.68 499.445 1320.33 500.498 1320.33 501.786C1320.37 519.132 1320.34 536.484 1320.38 553.83C1320.38 555.084 1320.01 555.856 1319.01 556.614C1314.73 559.827 1310.52 563.133 1306.28 566.407C1305.81 566.769 1305.32 567.124 1304.82 567.5C1304.36 566.755 1304.54 566.071 1304.54 565.427C1304.53 544.231 1304.52 523.029 1304.56 501.833C1304.56 500.545 1304.23 499.492 1303.53 498.412C1288.56 475.304 1273.61 452.17 1258.67 429.042C1258.31 428.485 1257.96 427.915 1257.44 427.083H1257.45Z" fill="#A5FFCD"/>
</svg>
