<svg width="300" height="301" viewBox="0 0 300 301" fill="none" xmlns="http://www.w3.org/2000/svg">
<path fill-rule="evenodd" clip-rule="evenodd" d="M48.5881 69.8253C43.6176 69.8253 39.5881 73.8547 39.5881 78.8253V186.693C39.5881 191.663 43.6176 195.693 48.5881 195.693H74.9892V232.228L124.481 195.693H220.804C225.774 195.693 229.804 191.663 229.804 186.693V78.8253C229.804 73.8547 225.774 69.8253 220.804 69.8253H48.5881Z" fill="#1E73FF"/>
<g filter="url(#filter0_b_12_1486)">
<mask id="path-2-inside-1_12_1486" fill="white">
<path fill-rule="evenodd" clip-rule="evenodd" d="M207.393 127.607L272.979 241.204H141.808L207.393 127.607ZM201.327 161.521H213.459V205.638H201.327V161.521ZM213.459 212.806H201.327V229.35H213.459V212.806Z"/>
</mask>
<path fill-rule="evenodd" clip-rule="evenodd" d="M207.393 127.607L272.979 241.204H141.808L207.393 127.607ZM201.327 161.521H213.459V205.638H201.327V161.521ZM213.459 212.806H201.327V229.35H213.459V212.806Z" fill="url(#paint0_linear_12_1486)"/>
<path d="M272.979 241.204V241.704H273.845L273.412 240.954L272.979 241.204ZM207.393 127.607L207.826 127.357L207.393 126.607L206.96 127.357L207.393 127.607ZM141.808 241.204L141.375 240.954L140.942 241.704H141.808V241.204ZM213.459 161.521H213.959V161.021H213.459V161.521ZM201.327 161.521V161.021H200.827V161.521H201.327ZM213.459 205.638V206.138H213.959V205.638H213.459ZM201.327 205.638H200.827V206.138H201.327V205.638ZM201.327 212.806V212.306H200.827V212.806H201.327ZM213.459 212.806H213.959V212.306H213.459V212.806ZM201.327 229.35H200.827V229.85H201.327V229.35ZM213.459 229.35V229.85H213.959V229.35H213.459ZM273.412 240.954L207.826 127.357L206.96 127.857L272.546 241.454L273.412 240.954ZM141.808 241.704H272.979V240.704H141.808V241.704ZM206.96 127.357L141.375 240.954L142.241 241.454L207.826 127.857L206.96 127.357ZM213.459 161.021H201.327V162.021H213.459V161.021ZM213.959 205.638V161.521H212.959V205.638H213.959ZM201.327 206.138H213.459V205.138H201.327V206.138ZM200.827 161.521V205.638H201.827V161.521H200.827ZM201.327 213.306H213.459V212.306H201.327V213.306ZM201.827 229.35V212.806H200.827V229.35H201.827ZM213.459 228.85H201.327V229.85H213.459V228.85ZM212.959 212.806V229.35H213.959V212.806H212.959Z" fill="#4BE6EB" mask="url(#path-2-inside-1_12_1486)"/>
</g>
<path d="M176.564 102.543H71.342V107.877H176.564V102.543Z" fill="#A5FFCD"/>
<path d="M154.426 124.945H71.342V130.29H154.426V124.945Z" fill="#A5FFCD"/>
<path d="M118.156 147.336H71.342V152.67H118.156V147.336Z" fill="#A5FFCD"/>
<defs>
<filter id="filter0_b_12_1486" x="131.808" y="117.607" width="151.171" height="133.597" filterUnits="userSpaceOnUse" color-interpolation-filters="sRGB">
<feFlood flood-opacity="0" result="BackgroundImageFix"/>
<feGaussianBlur in="BackgroundImageFix" stdDeviation="5"/>
<feComposite in2="SourceAlpha" operator="in" result="effect1_backgroundBlur_12_1486"/>
<feBlend mode="normal" in="SourceGraphic" in2="effect1_backgroundBlur_12_1486" result="shape"/>
</filter>
<linearGradient id="paint0_linear_12_1486" x1="207.353" y1="258.68" x2="207.353" y2="115.47" gradientUnits="userSpaceOnUse">
<stop stop-color="#87E5F1"/>
<stop offset="0.414795" stop-color="#87E5F1"/>
<stop offset="1" stop-color="#B5F5F7" stop-opacity="0"/>
</linearGradient>
</defs>
</svg>
