<svg width="300" height="301" viewBox="0 0 300 301" fill="none" xmlns="http://www.w3.org/2000/svg">
<path d="M228.253 182.403H219.813C218.003 176.583 216.223 170.853 214.413 165.053H228.243V182.403H228.253Z" fill="black"/>
<path fill-rule="evenodd" clip-rule="evenodd" d="M207.773 145.839H207.783V164.97H215.453H228.253V182.403L207.783 182.403H190.4H172.533L164.993 182.403L155.173 182.403V182.395C149.253 182.399 143.333 182.401 137.413 182.402V182.403H119.843C114.793 182.403 109.743 182.402 104.693 182.402H104.691C98.1907 182.401 91.6907 182.4 85.1918 182.4H64.0927V164.97H84.5127V125.535H101.833V164.97H119.843V145.598V92.6438H137.373V95.8699C137.373 100.429 137.371 104.989 137.369 109.548C137.365 121.562 137.361 133.578 137.386 145.598H137.413V164.97H155.173V109.275H172.533V164.97H190.4V145.839H190.404C190.393 126.605 190.408 107.377 190.424 88.1434L190.427 84.1938L190.433 76.742C190.433 76.6895 190.453 76.6324 190.491 76.5296C190.517 76.4573 190.551 76.3623 190.593 76.2303H207.773V145.839Z" fill="#1E73FF"/>
<g filter="url(#filter0_b_3_359)">
<mask id="path-3-inside-1_3_359" fill="white">
<path fill-rule="evenodd" clip-rule="evenodd" d="M184.969 235.518C212.077 235.518 234.053 213.542 234.053 186.434C234.053 159.325 212.077 137.35 184.969 137.35C157.861 137.35 135.885 159.325 135.885 186.434C135.885 213.542 157.861 235.518 184.969 235.518ZM234.425 220.33L251.615 237.52V237.51C252.185 238.09 253.125 238.09 253.705 237.51C254.275 236.93 255.215 236.93 255.795 237.51L283.835 265.55C286.565 268.28 286.565 272.72 283.835 275.45L278.885 280.4C276.155 283.13 271.715 283.13 268.985 280.4L240.945 252.36C240.365 251.79 240.365 250.85 240.945 250.27C241.525 249.7 241.525 248.76 240.945 248.18L223.755 230.99C223.175 230.42 223.175 229.48 223.755 228.9L232.335 220.33C232.905 219.75 233.845 219.75 234.425 220.33Z"/>
</mask>
<path fill-rule="evenodd" clip-rule="evenodd" d="M184.969 235.518C212.077 235.518 234.053 213.542 234.053 186.434C234.053 159.325 212.077 137.35 184.969 137.35C157.861 137.35 135.885 159.325 135.885 186.434C135.885 213.542 157.861 235.518 184.969 235.518ZM234.425 220.33L251.615 237.52V237.51C252.185 238.09 253.125 238.09 253.705 237.51C254.275 236.93 255.215 236.93 255.795 237.51L283.835 265.55C286.565 268.28 286.565 272.72 283.835 275.45L278.885 280.4C276.155 283.13 271.715 283.13 268.985 280.4L240.945 252.36C240.365 251.79 240.365 250.85 240.945 250.27C241.525 249.7 241.525 248.76 240.945 248.18L223.755 230.99C223.175 230.42 223.175 229.48 223.755 228.9L232.335 220.33C232.905 219.75 233.845 219.75 234.425 220.33Z" fill="url(#paint0_linear_3_359)"/>
<path d="M251.615 237.52L251.261 237.874L252.115 238.727V237.52H251.615ZM234.425 220.33L234.779 219.977L234.425 220.33ZM251.615 237.51L251.972 237.16L251.115 236.288V237.51H251.615ZM253.705 237.51L254.059 237.864L254.062 237.861L253.705 237.51ZM255.795 237.51L256.149 237.157L255.795 237.51ZM283.835 265.55L284.189 265.197H284.189L283.835 265.55ZM283.835 275.45L283.481 275.097H283.481L283.835 275.45ZM278.885 280.4L279.239 280.754H279.239L278.885 280.4ZM240.945 252.36L241.299 252.006L241.296 252.003L240.945 252.36ZM240.945 250.27L240.595 249.913L240.591 249.917L240.945 250.27ZM240.945 248.18L240.591 248.534L240.945 248.18ZM223.755 230.99L224.109 230.636L224.105 230.633L223.755 230.99ZM223.755 228.9L223.402 228.546L223.401 228.547L223.755 228.9ZM232.335 220.33L232.688 220.684L232.692 220.681L232.335 220.33ZM233.553 186.434C233.553 213.266 211.801 235.018 184.969 235.018V236.018C212.353 236.018 234.553 213.818 234.553 186.434H233.553ZM184.969 137.85C211.801 137.85 233.553 159.602 233.553 186.434H234.553C234.553 159.049 212.353 136.85 184.969 136.85V137.85ZM136.385 186.434C136.385 159.602 158.137 137.85 184.969 137.85V136.85C157.585 136.85 135.385 159.049 135.385 186.434H136.385ZM184.969 235.018C158.137 235.018 136.385 213.266 136.385 186.434H135.385C135.385 213.818 157.585 236.018 184.969 236.018V235.018ZM251.969 237.167L234.779 219.977L234.071 220.684L251.261 237.874L251.969 237.167ZM251.115 237.51V237.52H252.115V237.51H251.115ZM253.351 237.157C252.965 237.543 252.344 237.539 251.972 237.16L251.258 237.861C252.026 238.642 253.285 238.637 254.059 237.864L253.351 237.157ZM256.149 237.157C255.375 236.383 254.116 236.379 253.348 237.16L254.062 237.861C254.434 237.482 255.055 237.477 255.441 237.864L256.149 237.157ZM284.189 265.197L256.149 237.157L255.441 237.864L283.481 265.904L284.189 265.197ZM284.189 275.804C287.114 272.878 287.114 268.122 284.189 265.197L283.481 265.904C286.016 268.438 286.016 272.562 283.481 275.097L284.189 275.804ZM279.239 280.754L284.189 275.804L283.481 275.097L278.531 280.047L279.239 280.754ZM268.632 280.754C271.557 283.679 276.313 283.679 279.239 280.754L278.531 280.047C275.997 282.581 271.873 282.581 269.339 280.047L268.632 280.754ZM240.591 252.714L268.632 280.754L269.339 280.047L241.299 252.007L240.591 252.714ZM240.591 249.917C239.818 250.69 239.813 251.949 240.595 252.717L241.296 252.003C240.917 251.631 240.912 251.01 241.299 250.624L240.591 249.917ZM240.591 248.534C240.978 248.92 240.973 249.541 240.595 249.913L241.296 250.627C242.077 249.859 242.072 248.6 241.299 247.827L240.591 248.534ZM223.401 231.344L240.591 248.534L241.299 247.827L224.109 230.637L223.401 231.344ZM223.401 228.547C222.628 229.32 222.623 230.579 223.405 231.347L224.105 230.633C223.727 230.261 223.722 229.64 224.109 229.254L223.401 228.547ZM231.982 219.976L223.402 228.546L224.108 229.254L232.688 220.684L231.982 219.976ZM234.779 219.977C234.005 219.203 232.746 219.199 231.978 219.98L232.692 220.681C233.064 220.302 233.685 220.297 234.071 220.684L234.779 219.977Z" fill="#4BE6EB" mask="url(#path-3-inside-1_3_359)"/>
</g>
<path fill-rule="evenodd" clip-rule="evenodd" d="M210.921 47.9631C210.921 54.4905 205.63 59.782 199.103 59.782C196.312 59.782 193.747 58.8146 191.725 57.1968L175.002 69.6096C175.447 70.8532 175.689 72.1931 175.689 73.5896C175.689 80.117 170.398 85.4085 163.87 85.4085C157.343 85.4085 152.051 80.117 152.051 73.5896C152.051 73.3404 152.059 73.0931 152.074 72.8477L138.172 67.5994C136.028 70.5933 132.52 72.5442 128.556 72.5442C125.902 72.5442 123.452 71.6693 121.479 70.1921L104.273 82.285C104.783 83.6047 105.062 85.0388 105.062 86.5381C105.062 93.0656 99.7703 98.3571 93.2429 98.3571C86.7155 98.3571 81.424 93.0656 81.424 86.5381C81.424 80.0107 86.7155 74.7192 93.2429 74.7192C95.9418 74.7192 98.4294 75.6239 100.419 77.1465L117.57 65.0921C117.033 63.7412 116.737 62.2677 116.737 60.7253C116.737 54.1979 122.029 48.9064 128.556 48.9064C135.084 48.9064 140.375 54.1979 140.375 60.7253C140.375 61.0051 140.366 61.2827 140.346 61.5577L154.203 66.7887C156.342 63.7534 159.875 61.7707 163.87 61.7707C166.674 61.7707 169.251 62.7473 171.277 64.3789L187.983 51.9783C187.53 50.7247 187.284 49.3727 187.284 47.9631C187.284 41.4357 192.575 36.1442 199.103 36.1442C205.63 36.1442 210.921 41.4357 210.921 47.9631Z" fill="#1E73FF"/>
<defs>
<filter id="filter0_b_3_359" x="125.885" y="127.35" width="169.997" height="165.098" filterUnits="userSpaceOnUse" color-interpolation-filters="sRGB">
<feFlood flood-opacity="0" result="BackgroundImageFix"/>
<feGaussianBlur in="BackgroundImageFix" stdDeviation="5"/>
<feComposite in2="SourceAlpha" operator="in" result="effect1_backgroundBlur_3_359"/>
<feBlend mode="normal" in="SourceGraphic" in2="effect1_backgroundBlur_3_359" result="shape"/>
</filter>
<linearGradient id="paint0_linear_3_359" x1="210.838" y1="304.77" x2="210.838" y2="121.848" gradientUnits="userSpaceOnUse">
<stop stop-color="#87E5F1"/>
<stop offset="0.414795" stop-color="#87E5F1"/>
<stop offset="1" stop-color="#B5F5F7" stop-opacity="0"/>
</linearGradient>
</defs>
</svg>
