<svg width="300" height="301" viewBox="0 0 300 301" fill="none" xmlns="http://www.w3.org/2000/svg">
<rect x="42.9136" y="46.4376" width="152.331" height="191.666" rx="9" fill="#1E73FF"/>
<path d="M65.5947 113.373L76.7204 127.465L98.9716 105.214" stroke="#A5FFCD" stroke-width="8"/>
<path d="M65.5947 165.235L76.7204 179.328L98.9716 157.076" stroke="#A5FFCD" stroke-width="8"/>
<path d="M118.419 105.214H172.564" stroke="#A5FFCD" stroke-width="8"/>
<path d="M118.419 157.076H172.564" stroke="#A5FFCD" stroke-width="8"/>
<path d="M118.419 116.34H156.246" stroke="#A5FFCD" stroke-width="8"/>
<path d="M118.419 168.202H156.246" stroke="#A5FFCD" stroke-width="8"/>
<path d="M118.419 127.465H145.491" stroke="#A5FFCD" stroke-width="8"/>
<path d="M118.419 179.327H145.491" stroke="#A5FFCD" stroke-width="8"/>
<g filter="url(#filter0_b_16_44)">
<path fill-rule="evenodd" clip-rule="evenodd" d="M107.054 29.0652L107.056 29.0693C107.864 30.4574 108.691 31.8794 109.551 33.3504H87.4756V33.3504H50.9136C46.4953 33.3504 42.9136 36.9321 42.9136 41.3504V57.6708H84.8543V57.6708H152.134L195.822 57.6708V41.3504C195.822 36.9321 192.241 33.3504 187.822 33.3504H139.901L125.497 33.3504C126.223 32.1006 126.923 30.8907 127.606 29.7109L127.608 29.7073L127.608 29.7067L127.609 29.7062C129.357 26.6845 130.99 23.8609 132.667 21.0739C133.837 19.1177 134.676 17.1509 133.645 14.7717C132.658 12.4983 130.884 12.2022 128.979 12.2022C121.36 12.2339 113.732 12.2234 106.113 12.2022C104.129 12.2022 102.321 12.4983 101.298 14.9198C100.302 17.2566 101.211 19.1071 102.312 20.9681C103.881 23.6124 105.427 26.2702 107.054 29.0651L107.054 29.0652Z" fill="#A5FFCD"/>
</g>
<g filter="url(#filter1_b_16_44)">
<mask id="path-11-inside-1_16_44" fill="white">
<path fill-rule="evenodd" clip-rule="evenodd" d="M221.325 228.761C228.678 220.923 233.18 210.38 233.18 198.785C233.18 174.58 213.559 154.959 189.355 154.959C165.15 154.959 145.529 174.58 145.529 198.785C145.529 210.38 150.032 220.923 157.384 228.761C137.72 239.255 123.819 259.129 121.648 282.409C121.333 285.831 123.985 288.798 127.423 288.798H251.286C254.724 288.798 257.376 285.831 257.061 282.409C254.89 259.129 240.989 239.255 221.325 228.761Z"/>
</mask>
<path fill-rule="evenodd" clip-rule="evenodd" d="M221.325 228.761C228.678 220.923 233.18 210.38 233.18 198.785C233.18 174.58 213.559 154.959 189.355 154.959C165.15 154.959 145.529 174.58 145.529 198.785C145.529 210.38 150.032 220.923 157.384 228.761C137.72 239.255 123.819 259.129 121.648 282.409C121.333 285.831 123.985 288.798 127.423 288.798H251.286C254.724 288.798 257.376 285.831 257.061 282.409C254.89 259.129 240.989 239.255 221.325 228.761Z" fill="url(#paint0_linear_16_44)"/>
<path d="M221.325 228.761L220.96 228.419L220.514 228.895L221.09 229.202L221.325 228.761ZM157.384 228.761L157.619 229.202L158.195 228.895L157.749 228.419L157.384 228.761ZM121.648 282.409L121.15 282.363L121.15 282.363L121.648 282.409ZM257.061 282.409L257.559 282.363L257.559 282.363L257.061 282.409ZM232.68 198.785C232.68 210.248 228.229 220.67 220.96 228.419L221.69 229.103C229.126 221.176 233.68 210.512 233.68 198.785H232.68ZM189.355 155.459C213.283 155.459 232.68 174.857 232.68 198.785H233.68C233.68 174.304 213.835 154.459 189.355 154.459V155.459ZM146.029 198.785C146.029 174.857 165.426 155.459 189.355 155.459V154.459C164.874 154.459 145.029 174.304 145.029 198.785H146.029ZM157.749 228.419C150.48 220.67 146.029 210.248 146.029 198.785H145.029C145.029 210.512 149.584 221.176 157.019 229.103L157.749 228.419ZM122.146 282.456C124.301 259.348 138.099 239.62 157.619 229.202L157.149 228.32C137.341 238.891 123.337 258.91 121.15 282.363L122.146 282.456ZM127.423 288.298C124.285 288.298 121.857 285.59 122.146 282.455L121.15 282.363C120.809 286.072 123.684 289.298 127.423 289.298V288.298ZM251.286 288.298H127.423V289.298H251.286V288.298ZM256.563 282.455C256.852 285.59 254.424 288.298 251.286 288.298V289.298C255.025 289.298 257.9 286.072 257.559 282.363L256.563 282.455ZM221.09 229.202C240.61 239.62 254.408 259.348 256.563 282.456L257.559 282.363C255.372 258.91 241.368 238.891 221.561 228.32L221.09 229.202Z" fill="#4BE6EB" mask="url(#path-11-inside-1_16_44)"/>
</g>
<defs>
<filter id="filter0_b_16_44" x="32.9136" y="2.20221" width="172.909" height="65.4686" filterUnits="userSpaceOnUse" color-interpolation-filters="sRGB">
<feFlood flood-opacity="0" result="BackgroundImageFix"/>
<feGaussianBlur in="BackgroundImageFix" stdDeviation="5"/>
<feComposite in2="SourceAlpha" operator="in" result="effect1_backgroundBlur_16_44"/>
<feBlend mode="normal" in="SourceGraphic" in2="effect1_backgroundBlur_16_44" result="shape"/>
</filter>
<filter id="filter1_b_16_44" x="111.623" y="144.959" width="155.464" height="153.839" filterUnits="userSpaceOnUse" color-interpolation-filters="sRGB">
<feFlood flood-opacity="0" result="BackgroundImageFix"/>
<feGaussianBlur in="BackgroundImageFix" stdDeviation="5"/>
<feComposite in2="SourceAlpha" operator="in" result="effect1_backgroundBlur_16_44"/>
<feBlend mode="normal" in="SourceGraphic" in2="effect1_backgroundBlur_16_44" result="shape"/>
</filter>
<linearGradient id="paint0_linear_16_44" x1="189.313" y1="309.388" x2="189.313" y2="140.66" gradientUnits="userSpaceOnUse">
<stop stop-color="#87E5F1"/>
<stop offset="0.414795" stop-color="#87E5F1"/>
<stop offset="1" stop-color="#B5F5F7" stop-opacity="0"/>
</linearGradient>
</defs>
</svg>
