<svg width="300" height="301" viewBox="0 0 300 301" fill="none" xmlns="http://www.w3.org/2000/svg">
<rect x="65.8691" y="58.8007" width="168.262" height="211.711" rx="9" fill="#1E73FF"/>
<path d="M89.6916 141.436L101.981 157.002L126.559 132.424" stroke="#A5FFCD" stroke-width="8"/>
<path d="M89.6916 198.721L101.981 214.288L126.559 189.709" stroke="#A5FFCD" stroke-width="8"/>
<path d="M148.04 132.424H207.847" stroke="#A5FFCD" stroke-width="8"/>
<path d="M148.04 189.709H207.847" stroke="#A5FFCD" stroke-width="8"/>
<path d="M148.04 144.713H189.823" stroke="#A5FFCD" stroke-width="8"/>
<path d="M148.04 201.999H189.823" stroke="#A5FFCD" stroke-width="8"/>
<path d="M148.04 157.002H177.944" stroke="#A5FFCD" stroke-width="8"/>
<path d="M148.04 214.288H177.944" stroke="#A5FFCD" stroke-width="8"/>
<g filter="url(#filter0_b_2_307)">
<mask id="path-10-inside-1_2_307" fill="white">
<path fill-rule="evenodd" clip-rule="evenodd" d="M114.691 83.5379H65.354V63.1627C65.354 58.7445 68.9357 55.1627 73.354 55.1627L111.788 55.1627H139.131C138.179 53.445 137.262 51.7845 136.367 50.1636C134.566 46.9025 132.854 43.8014 131.117 40.7161C129.898 38.5447 128.892 36.3858 129.994 33.6593C131.126 30.8341 133.129 30.4886 135.325 30.4886C143.76 30.5133 152.206 30.5257 160.641 30.4886C162.75 30.4886 164.714 30.8341 165.807 33.4865C166.949 36.2624 166.02 38.5571 164.724 40.8394C162.868 44.0905 161.06 47.3842 159.125 50.909L159.123 50.9118L159.123 50.9128L159.121 50.9158L159.119 50.9188C158.364 52.2945 157.59 53.7054 156.785 55.1627L172.733 55.1627H226.646C231.064 55.1627 234.646 58.7444 234.646 63.1627V83.5379L186.277 83.5379L114.691 83.5379Z"/>
</mask>
<path fill-rule="evenodd" clip-rule="evenodd" d="M114.691 83.5379H65.354V63.1627C65.354 58.7445 68.9357 55.1627 73.354 55.1627L111.788 55.1627H139.131C138.179 53.445 137.262 51.7845 136.367 50.1636C134.566 46.9025 132.854 43.8014 131.117 40.7161C129.898 38.5447 128.892 36.3858 129.994 33.6593C131.126 30.8341 133.129 30.4886 135.325 30.4886C143.76 30.5133 152.206 30.5257 160.641 30.4886C162.75 30.4886 164.714 30.8341 165.807 33.4865C166.949 36.2624 166.02 38.5571 164.724 40.8394C162.868 44.0905 161.06 47.3842 159.125 50.909L159.123 50.9118L159.123 50.9128L159.121 50.9158L159.119 50.9188C158.364 52.2945 157.59 53.7054 156.785 55.1627L172.733 55.1627H226.646C231.064 55.1627 234.646 58.7444 234.646 63.1627V83.5379L186.277 83.5379L114.691 83.5379Z" fill="url(#paint0_linear_2_307)"/>
<path d="M114.691 83.5379L114.691 84.0379H114.691L114.691 83.5379ZM65.354 83.5379H64.854V84.0379H65.354V83.5379ZM73.354 55.1627L73.354 55.6627L73.354 55.6627L73.354 55.1627ZM111.788 55.1627L111.788 54.6627L111.788 54.6627L111.788 55.1627ZM139.131 55.1627V55.6627H139.98L139.569 54.9202L139.131 55.1627ZM136.367 50.1636L135.929 50.4053L135.929 50.4053L136.367 50.1636ZM131.117 40.7161L130.681 40.9608L130.681 40.9614L131.117 40.7161ZM129.994 33.6593L130.458 33.8468L130.459 33.8452L129.994 33.6593ZM135.325 30.4886L135.326 29.9886H135.325V30.4886ZM160.641 30.4886V29.9886L160.639 29.9887L160.641 30.4886ZM165.807 33.4865L166.269 33.2964L166.269 33.296L165.807 33.4865ZM164.724 40.8394L165.158 41.0873L165.158 41.0864L164.724 40.8394ZM159.125 50.909L159.563 51.1504L159.563 51.1496L159.125 50.909ZM159.123 50.9118L158.685 50.6703L158.684 50.6734L159.123 50.9118ZM159.123 50.9128L159.561 51.153L159.562 51.1512L159.123 50.9128ZM159.121 50.9158L158.682 50.6756L158.682 50.6765L159.121 50.9158ZM159.119 50.9188L159.558 51.1594L159.558 51.1581L159.119 50.9188ZM156.785 55.1627L156.348 54.9211L155.938 55.6627L156.785 55.6627L156.785 55.1627ZM172.733 55.1627L172.733 54.6627L172.733 54.6627L172.733 55.1627ZM234.646 83.5379L234.646 84.0379L235.146 84.0379V83.5379H234.646ZM186.277 83.5379L186.277 84.0379L186.277 84.0379L186.277 83.5379ZM114.691 83.0379H65.354V84.0379H114.691V83.0379ZM65.854 83.5379V63.1627H64.854V83.5379H65.854ZM65.854 63.1627C65.854 59.0206 69.2118 55.6627 73.354 55.6627V54.6627C68.6596 54.6627 64.854 58.4683 64.854 63.1627H65.854ZM73.354 55.6627L111.788 55.6627L111.788 54.6627L73.354 54.6627L73.354 55.6627ZM111.788 55.6627H139.131V54.6627H111.788V55.6627ZM139.569 54.9202C138.616 53.203 137.7 51.5429 136.804 49.9219L135.929 50.4053C136.824 52.0262 137.741 53.687 138.694 55.4052L139.569 54.9202ZM136.804 49.9219C135.004 46.6611 133.291 43.5582 131.552 40.4708L130.681 40.9614C132.417 44.0446 134.128 47.1438 135.929 50.4053L136.804 49.9219ZM131.553 40.4713C130.339 38.3096 129.45 36.3399 130.458 33.8468L129.531 33.4718C128.334 36.4316 129.456 38.7798 130.681 40.9608L131.553 40.4713ZM130.459 33.8452C130.985 32.5305 131.69 31.8428 132.477 31.4654C133.287 31.0769 134.241 30.9886 135.325 30.9886V29.9886C134.212 29.9886 133.067 30.0731 132.044 30.5637C130.998 31.0653 130.136 31.9628 129.53 33.4733L130.459 33.8452ZM135.323 30.9886C143.759 31.0133 152.206 31.0257 160.643 30.9886L160.639 29.9887C152.205 30.0257 143.761 30.0133 135.326 29.9886L135.323 30.9886ZM160.641 30.9886C161.679 30.9886 162.605 31.0763 163.393 31.4456C164.158 31.8043 164.84 32.4523 165.345 33.6771L166.269 33.296C165.681 31.8683 164.835 31.0174 163.817 30.5402C162.822 30.0737 161.712 29.9886 160.641 29.9886V30.9886ZM165.345 33.6767C166.393 36.2272 165.569 38.3389 164.289 40.5925L165.158 41.0864C166.471 38.7752 167.504 36.2975 166.269 33.2964L165.345 33.6767ZM164.289 40.5915C162.431 43.8469 160.621 47.1443 158.686 50.6684L159.563 51.1496C161.498 47.6242 163.304 44.3341 165.158 41.0873L164.289 40.5915ZM158.687 50.6675L158.685 50.6703L159.561 51.1532L159.563 51.1504L158.687 50.6675ZM158.684 50.6734L158.683 50.6744L159.562 51.1512L159.563 51.1502L158.684 50.6734ZM158.684 50.6726L158.682 50.6756L159.559 51.1561L159.561 51.153L158.684 50.6726ZM158.682 50.6765L158.68 50.6795L159.558 51.1581L159.56 51.1551L158.682 50.6765ZM158.681 50.6782C157.926 52.054 157.152 53.4644 156.348 54.9211L157.223 55.4043C158.028 53.9464 158.802 52.535 159.558 51.1594L158.681 50.6782ZM156.785 55.6627L172.733 55.6627L172.733 54.6627L156.785 54.6627L156.785 55.6627ZM172.733 55.6627H226.646V54.6627H172.733V55.6627ZM226.646 55.6627C230.788 55.6627 234.146 59.0206 234.146 63.1627H235.146C235.146 58.4683 231.34 54.6627 226.646 54.6627V55.6627ZM234.146 63.1627V83.5379H235.146V63.1627H234.146ZM234.646 83.0379L186.277 83.0379L186.277 84.0379L234.646 84.0379L234.646 83.0379ZM186.277 83.0379L114.691 83.0379L114.691 84.0379L186.277 84.0379L186.277 83.0379Z" fill="#4BE6EB" mask="url(#path-10-inside-1_2_307)"/>
</g>
<defs>
<filter id="filter0_b_2_307" x="55.354" y="20.4886" width="189.292" height="73.0493" filterUnits="userSpaceOnUse" color-interpolation-filters="sRGB">
<feFlood flood-opacity="0" result="BackgroundImageFix"/>
<feGaussianBlur in="BackgroundImageFix" stdDeviation="5"/>
<feComposite in2="SourceAlpha" operator="in" result="effect1_backgroundBlur_2_307"/>
<feBlend mode="normal" in="SourceGraphic" in2="effect1_backgroundBlur_2_307" result="shape"/>
</filter>
<linearGradient id="paint0_linear_2_307" x1="154.134" y1="24.544" x2="153.692" y2="101.561" gradientUnits="userSpaceOnUse">
<stop stop-color="#87E5F1"/>
<stop offset="0.348904" stop-color="#87E5F1"/>
<stop offset="1" stop-color="#B5F5F7" stop-opacity="0"/>
</linearGradient>
</defs>
</svg>
