<svg width="300" height="301" viewBox="0 0 300 301" fill="none" xmlns="http://www.w3.org/2000/svg">
<path fill-rule="evenodd" clip-rule="evenodd" d="M58 136.043C58 155.421 73.7088 171.13 93.0865 171.13H217.913C237.291 171.13 253 155.421 253 136.043C253 116.666 237.291 100.957 217.913 100.957C217.913 81.579 202.205 65.8702 182.827 65.8702C170.513 65.8702 159.681 72.2135 153.42 81.8107C148.349 78.9641 142.499 77.3408 136.27 77.3408C120.42 77.3408 107.024 87.851 102.672 102.282C99.6255 101.419 96.41 100.957 93.0865 100.957C73.7088 100.957 58 116.666 58 136.043Z" fill="#1E73FF"/>
<g filter="url(#filter0_b_8_1004)">
<path d="M167.153 271.944L167.153 221.605L203.386 221.605C204.051 221.605 204.725 221.564 205.334 221.298C206.416 220.827 207.69 219.859 208.277 218.188C208.841 216.579 208.089 214.876 207.153 213.452L155.274 134.554L103.644 213.567C102.865 214.76 102.255 216.128 102.516 217.529C102.734 218.695 103.289 219.963 104.459 220.845C105.332 221.502 106.474 221.605 107.567 221.605L143.922 221.605L143.922 271.944L167.153 271.944Z" fill="url(#paint0_linear_8_1004)"/>
<path d="M167.153 271.944L167.153 221.605L203.386 221.605C204.051 221.605 204.725 221.564 205.334 221.298C206.416 220.827 207.69 219.859 208.277 218.188C208.841 216.579 208.089 214.876 207.153 213.452L155.274 134.554L103.644 213.567C102.865 214.76 102.255 216.128 102.516 217.529C102.734 218.695 103.289 219.963 104.459 220.845C105.332 221.502 106.474 221.605 107.567 221.605L143.922 221.605L143.922 271.944L167.153 271.944Z" stroke="#4BE6EB" stroke-width="0.5"/>
</g>
<defs>
<filter id="filter0_b_8_1004" x="92.2046" y="124.098" width="126.517" height="158.096" filterUnits="userSpaceOnUse" color-interpolation-filters="sRGB">
<feFlood flood-opacity="0" result="BackgroundImageFix"/>
<feGaussianBlur in="BackgroundImageFix" stdDeviation="5"/>
<feComposite in2="SourceAlpha" operator="in" result="effect1_backgroundBlur_8_1004"/>
<feBlend mode="normal" in="SourceGraphic" in2="effect1_backgroundBlur_8_1004" result="shape"/>
</filter>
<linearGradient id="paint0_linear_8_1004" x1="155.532" y1="113.417" x2="155.532" y2="286.622" gradientUnits="userSpaceOnUse">
<stop stop-color="#B5F5F7" stop-opacity="0"/>
<stop offset="0.625" stop-color="#87E5F1"/>
<stop offset="1" stop-color="#87E5F1"/>
</linearGradient>
</defs>
</svg>
